<?xml version="1.0" encoding="UTF-8"?>
<svg xmlns="http://www.w3.org/2000/svg" width="237" height="34" viewBox="0 0 237 34" fill="none">
  <g clip-path="url(#clip0_188_2629)">
    <path d="M213.79 20.3904L213.804 20.3927C213.843 20.4052 213.915 20.4241 214.026 20.427C214.126 20.4377 214.138 20.5104 214.138 20.5104L214.191 20.6706C214.191 20.6706 214.341 20.7249 214.401 20.7935C214.467 20.8674 214.352 20.8597 214.318 20.8845C214.286 20.9111 214.175 20.8981 214.175 20.8981L214.257 21.0424L214.113 21.131L213.886 21.0619L213.971 21.1736L213.886 21.2605C213.886 21.2605 213.549 21.1582 213.549 21.1204C213.549 21.0855 213.451 21.0252 213.451 21.0252L213.192 21.0465L213.236 20.9389L213.507 20.8508C213.507 20.8508 213.713 20.7704 213.746 20.7551C213.779 20.7474 213.564 20.6694 213.544 20.6516C213.525 20.6292 213.451 20.5707 213.451 20.5707C213.451 20.5707 213.413 20.576 213.36 20.576C213.272 20.6203 213.191 20.6599 213.104 20.7072L213.192 20.7279L213.046 20.8709C213.037 20.8833 213.02 20.9271 212.924 20.9425C212.822 20.9667 212.714 20.962 212.659 20.9667C212.65 20.9665 212.642 20.9673 212.633 20.9691C212.578 20.9957 212.54 21.0234 212.495 21.0465L212.592 21.0163C212.592 21.0163 212.691 21.0016 212.691 21.0163C212.691 21.0276 212.78 21.0955 212.78 21.0955C212.78 21.0955 212.863 21.1434 212.839 21.1499C212.821 21.1612 212.809 21.1765 212.74 21.1765C212.674 21.1765 212.592 21.1854 212.562 21.1913L212.402 21.2303L212.425 21.134C212.425 21.134 212.391 21.1233 212.366 21.1269C212.034 21.3326 211.726 21.5519 211.439 21.7936C211.437 21.8267 211.43 21.8545 211.43 21.8545L211.592 21.8445L211.831 21.9272L211.923 21.9733L212.115 21.9615L212.058 22.0372L212.024 22.1648L212.028 22.2854L212.118 22.312L212.282 22.1808L212.294 22.0135C212.294 22.0135 212.466 21.9893 212.545 21.9455C212.627 21.9 212.725 21.8037 212.725 21.7777C212.725 21.7434 212.681 21.6453 212.681 21.6453C212.681 21.6453 212.809 21.559 212.827 21.5341C212.85 21.5046 212.861 21.3828 212.861 21.3828C212.861 21.3828 212.832 21.2894 212.954 21.2764C213.07 21.267 213.19 21.267 213.214 21.2658C213.242 21.2622 213.305 21.2451 213.367 21.2593C213.385 21.2633 213.403 21.272 213.417 21.2847C213.432 21.2973 213.443 21.3134 213.449 21.3314L213.581 21.3361L213.504 21.4496L213.405 21.543L213.542 21.5678L213.631 21.5956L213.818 21.4774L213.915 21.3893C213.915 21.3893 213.927 21.4124 213.933 21.4319C214.351 20.9413 214.846 20.5216 215.377 20.1865L215.251 19.9878L214.859 19.9949C214.49 20.109 214.136 20.2414 213.79 20.3904ZM211.281 23.2075L211.342 23.2353L211.628 23.2028L211.863 23.1094L211.945 22.9924L211.759 23.0367L211.7 23.1253L211.659 23.1212L211.394 23.1478L211.281 23.2075ZM211.358 22.607L211.254 22.5815C211.254 22.5815 211.141 22.5898 211.12 22.6117C211.085 22.6421 211.044 22.6638 210.999 22.6749C210.969 22.6749 210.785 22.7683 210.785 22.7683L210.811 22.8032L210.949 22.7802L211.141 22.7453L211.225 22.8109L211.369 22.7843L211.481 22.7405L211.44 22.6738L211.358 22.607ZM211.338 22.8393L211.226 22.854L211.043 22.9593L210.921 23.1986L211.046 23.2046L211.116 23.0538L211.278 22.893L211.384 22.8972L211.239 23.0178L211.358 23.0243L211.449 22.9799L211.454 23.0721L211.567 23.0455L211.647 22.9061L211.587 22.8529L211.338 22.8393ZM213.279 22.3292L213.263 22.3345C213.199 22.3469 213.185 22.3291 213.147 22.377C213.111 22.4255 213.064 22.4385 213.064 22.4385L212.928 22.5112L212.971 22.5272L213.191 22.4775C213.227 22.4302 213.25 22.377 213.279 22.3292ZM212.445 31.4538V31.4479C212.445 31.3876 212.413 31.2664 212.383 31.215C212.358 31.1707 212.337 31.1246 212.319 31.0773L212.297 31.0069C212.297 31.0069 212.287 31.0359 212.26 31.0099C212.228 30.9791 212.149 30.9064 212.149 30.9064L212.143 30.8119L212.093 30.6038L212.111 30.5264L212.121 30.1924L212.002 29.9566L212.009 29.8372C212.014 29.8224 212.002 29.7284 212.002 29.7284L212.064 29.5682L212.027 29.5115V29.4636L212.015 29.3755C212.015 29.3755 212.013 29.3087 212.013 29.2656C212.013 29.2484 212.008 29.2183 212.007 29.1881C211.289 29.1122 210.573 29.0198 209.859 28.9109C210.434 29.8974 211.33 30.7675 212.445 31.4538ZM209.114 26.2682C209.114 27.1181 209.336 27.935 209.733 28.6839C210.434 28.798 211.182 28.8973 211.971 28.9872L211.955 28.8158C211.955 28.8158 211.918 28.7702 211.877 28.7454C211.838 28.7147 211.877 28.7584 211.838 28.7147C211.804 28.6774 211.654 28.5858 211.654 28.5858C211.654 28.5858 211.506 28.506 211.458 28.4842C211.409 28.4546 211.332 28.428 211.316 28.399C211.295 28.3695 211.281 28.3382 211.281 28.3382C211.281 28.3382 211.102 28.0196 211.063 27.9746C211.025 27.9208 210.996 27.8795 210.975 27.8546C210.956 27.8239 210.846 27.7193 210.84 27.7004C210.828 27.6815 210.73 27.6088 210.73 27.6088C210.73 27.6088 210.68 27.5366 210.704 27.4888C210.719 27.4496 210.74 27.4129 210.766 27.38C210.785 27.3522 210.773 27.3043 210.758 27.2831C210.742 27.2476 210.739 27.2618 210.742 27.2222C210.751 27.1855 210.73 27.1755 210.751 27.1465C210.77 27.1176 210.933 26.9597 210.937 26.9331C210.943 26.9071 211.025 26.8474 211.059 26.8202C211.092 26.7901 211.121 26.7127 211.134 26.6867C211.145 26.6559 211.178 26.5371 211.141 26.4963C211.103 26.452 211.013 26.306 211.013 26.306L210.943 26.2451L210.865 26.2587C210.861 26.2753 210.827 26.2841 210.816 26.3054C210.812 26.3177 210.809 26.3301 210.807 26.3426L210.775 26.3704L210.693 26.3533L210.606 26.3107L210.513 26.2841L210.422 26.1895L210.304 26.1364L210.274 26.0105L210.137 25.8763L210.092 25.8509L210.018 25.8337L209.932 25.8231L209.811 25.8018L209.73 25.7917L209.635 25.696L209.46 25.5801L209.351 25.5961C209.351 25.5961 209.263 25.6186 209.243 25.6186L209.164 25.6103C209.129 25.8278 209.112 26.0479 209.114 26.2682ZM212.44 23.1797C212.44 23.1797 212.425 23.1969 212.407 23.2099C212.547 23.1992 212.691 23.191 212.832 23.1744C212.886 23.055 212.941 22.9474 213 22.8263L212.606 23.0054L212.44 23.1797ZM220.152 21.0459C220.22 21.0506 220.241 21.063 220.241 21.063L220.253 20.9974L220.38 21.0081L220.382 20.9756L220.518 20.9247C220.492 20.8795 220.465 20.8348 220.438 20.7905L220.311 20.8763C220.311 20.8763 220.135 20.839 220.119 20.8514C220.101 20.8597 219.993 20.8715 219.993 20.8715L220.034 20.9673C220.034 20.9679 220.085 21.0406 220.152 21.0459ZM221.021 23.1892L221.033 23.1667C220.913 23.1614 220.798 23.1584 220.684 23.1531L220.858 23.1986L221.021 23.1892ZM220.134 23.159C220.134 23.159 220.176 23.1519 220.226 23.1419C220.144 23.1395 220.063 23.1395 219.98 23.1348L219.989 23.159H220.134ZM220.706 24.4358V24.4175C220.64 24.4074 220.618 24.4778 220.618 24.4778L220.812 24.807L220.858 24.9424L220.959 25.0895C220.959 25.0895 221.005 25.1877 221.011 25.2125C221.018 25.2409 221.076 25.3573 221.076 25.3573C221.076 25.3573 221.095 25.4371 221.122 25.4684C221.143 25.4986 221.315 25.7374 221.341 25.7663C221.379 25.7941 221.423 25.8124 221.525 25.8633C221.63 25.9289 221.63 25.9921 221.63 25.9921L221.615 26.0453L221.741 26.1157C221.741 26.053 221.741 25.9833 221.74 25.9188L221.714 25.9295C221.631 25.933 221.619 25.8893 221.619 25.8532C221.619 25.8219 221.544 25.7303 221.538 25.6528C221.526 25.5784 221.453 25.4548 221.453 25.4548C221.453 25.4548 221.385 25.3993 221.372 25.3419C221.361 25.2911 221.308 25.2474 221.264 25.2101C221.226 25.1764 221.186 25.1563 221.168 25.0972C221.15 25.0357 221.147 24.9619 221.104 24.9004C221.06 24.8312 220.997 24.8194 220.997 24.8194C220.997 24.8194 220.979 24.7946 220.965 24.7597C220.9 24.6575 220.834 24.5562 220.766 24.4559C220.749 24.4275 220.706 24.4358 220.706 24.4358ZM222.102 23.2956L222.143 23.2672L222.112 23.23L222.106 23.2176C221.962 23.2069 221.816 23.201 221.672 23.1945L221.728 23.2601L221.815 23.2855L221.723 23.3104V23.4504L221.746 23.5545C221.746 23.5545 221.796 23.5698 221.815 23.574C221.826 23.574 221.859 23.6065 221.859 23.6065C221.859 23.6065 221.94 23.6573 221.981 23.6621C222.016 23.6739 222.037 23.6621 222.037 23.6621C222.06 23.6532 222.182 23.6331 222.182 23.6331C222.182 23.6331 222.143 23.5438 222.14 23.5373L222.139 23.4735L222.124 23.4451L222.076 23.4173L222.06 23.3925V23.3435L222.007 23.3364L221.995 23.3157V23.2672L222.102 23.2956ZM227.681 24.0191C227.707 24.0374 227.762 24.0498 227.762 24.0498C227.762 24.0498 227.812 24.119 227.838 24.1391C227.86 24.1574 227.937 24.2082 227.937 24.2082L227.989 24.2526L227.882 24.2591L227.932 24.2774L227.989 24.3454L228.004 24.3986L228.049 24.4145C228.049 24.4145 228.055 24.4352 228.017 24.5174C227.988 24.6019 228.023 24.6953 227.95 24.8176L227.945 24.82C228.073 25.2496 228.141 25.6943 228.15 26.1423L228.196 26.0867L228.215 26.04L228.243 26.017V26.0784L228.211 26.1618L228.152 26.2055V26.2699C228.152 26.345 228.149 26.4165 228.146 26.4969L228.182 26.494L228.249 26.5395L228.182 26.5537L228.201 26.6039L228.149 26.6181L228.14 26.6157C228.14 26.6612 228.136 26.702 228.129 26.7517L228.145 26.8013L228.227 26.8522L228.239 26.9071H228.163L228.129 26.9852L228.12 27.0531L228.087 27.0945C228.055 27.2861 228.012 27.4758 227.959 27.6625C228.003 27.6696 228.042 27.6773 228.073 27.6773C228.162 27.6773 228.194 27.6933 228.241 27.6885C228.29 27.6773 228.399 27.6773 228.45 27.6773C228.499 27.6797 228.487 27.7098 228.487 27.7098L228.326 27.7323L227.987 27.7654L227.934 27.7607C227.842 28.0672 227.722 28.3645 227.575 28.6485C227.881 28.5929 228.174 28.5421 228.45 28.4871L228.464 28.4676C228.47 28.4481 228.535 28.4168 228.535 28.4168C228.535 28.4168 228.571 28.3234 228.648 28.2838C228.731 28.2424 228.753 28.2004 228.795 28.1833C228.839 28.1591 228.911 28.1419 228.941 28.1537C228.972 28.1638 228.996 28.2146 228.996 28.2146L229.1 28.1868C229.1 28.1868 229.058 28.1868 229.1 28.1384C229.142 28.0858 229.202 27.9782 229.202 27.9782L229.357 27.9723L229.369 27.8824L229.74 27.9528L229.672 28.0645L229.609 28.149L229.668 28.2146L229.673 28.2199C229.824 28.1845 229.966 28.149 230.109 28.1064V28.0006L230.216 27.8145L230.262 27.8606L230.351 28.0408C230.549 27.9805 230.739 27.9256 230.92 27.8641C231.153 27.3528 231.278 26.8179 231.278 26.2699C231.278 25.6794 231.141 25.1031 230.875 24.5587C230.291 24.3742 229.699 24.218 229.1 24.0906L229.091 24.1225L229.039 24.1385L229.013 24.0705C228.99 24.0658 228.976 24.0604 228.957 24.0587L228.821 24.0658L228.745 24.1071L228.666 24.0628L228.723 24.0084C228.636 23.9923 228.55 23.9744 228.464 23.9546C228.458 23.9706 228.447 23.9836 228.44 23.996C228.425 24.0208 228.266 24.0486 228.266 24.0486L228.221 23.9901C228.221 23.9901 228.228 23.9529 228.224 23.9198L228.221 23.9079C228.072 23.8825 227.923 23.8512 227.77 23.8287L227.676 23.9192C227.608 23.9795 227.659 23.9913 227.681 24.0191ZM228.35 27.8611L228.259 27.8115L228.321 27.7689L228.397 27.8375L228.35 27.8611ZM230.79 27.3611L230.932 27.3428L231.091 27.2582L231.105 27.2718L231.062 27.3552L230.967 27.4107L230.786 27.3865L230.805 27.3611H230.79ZM229.399 26.9846L229.579 27.0514L229.571 27.1034L229.632 27.1909L229.654 27.221L229.775 27.127L229.882 27.0632L229.933 27.091L230.168 27.1235L230.429 27.2346L230.55 27.3055L230.556 27.364L230.735 27.3871L230.731 27.4622L230.652 27.4899L230.706 27.5006L230.799 27.6377L230.877 27.6956L230.924 27.7778L230.83 27.7536L230.683 27.7287L230.592 27.5597L230.468 27.5331L230.332 27.6064L230.355 27.643L230.275 27.6927L230.114 27.6566L229.985 27.6685L229.855 27.6342L229.848 27.63L229.967 27.5804L229.924 27.4905L229.855 27.3646L229.722 27.3268L229.538 27.2576L229.45 27.2866L229.435 27.2145L229.533 27.1536L229.446 27.1613L229.383 27.0927H229.287L229.278 27.0295L229.399 26.9846ZM228.439 27.104L228.535 27.0407L228.59 27.0543L228.496 27.1643L228.538 27.273L228.6 27.3209V27.393L228.485 27.3286L228.439 27.2127L228.373 27.25L228.378 27.357L228.383 27.4687L228.302 27.4574L228.315 27.3286L228.246 27.2222L228.302 27.0768L228.398 26.9325L228.537 26.8876L228.67 26.8539L228.727 26.8663L228.604 26.9302L228.44 26.9426L228.383 27.0543L228.439 27.104ZM228.275 25.8361L228.364 25.852L228.373 25.8899L228.347 25.9301L228.315 25.8922L228.275 25.8361ZM228.512 26.0518L228.442 26.0897V25.9833L228.428 25.9466L228.528 25.9992L228.512 26.0518ZM228.545 26.0577L228.573 26.0713L228.564 26.1464L228.554 26.2031H228.511L228.495 26.1281L228.545 26.0577ZM228.669 27.8411L228.617 27.815L228.827 27.6951L228.841 27.6791L228.894 27.7092L228.669 27.8411ZM228.839 26.2203L228.824 26.2457L228.862 26.2764L228.874 26.3509L228.847 26.3923L228.798 26.348L228.773 26.3923L228.798 26.4479L228.776 26.4999H228.742L228.661 26.4189L228.662 26.3645L228.645 26.3231L228.6 26.3172L228.528 26.3137L228.495 26.3763H228.449L228.489 26.2948L228.534 26.2758L228.527 26.238L228.612 26.2445L228.607 26.2723L228.69 26.251L228.702 26.1996L228.755 26.17L228.733 26.1316L228.824 26.17L228.839 26.2203ZM228.723 26.0713L228.684 26.0784L228.646 26.0288L228.684 25.975L228.634 25.9419L228.67 25.9029L228.723 25.933L228.737 25.9915L228.702 26.014L228.723 26.0713ZM228.652 24.1249L228.748 24.1574L228.787 24.2295L228.775 24.3329L228.701 24.317L228.69 24.2165L228.624 24.1934L228.572 24.1574L228.652 24.1249ZM228.457 25.7604L228.554 25.7935L228.617 25.8727L228.59 25.9011H228.555L228.522 25.8319L228.457 25.8225L228.427 25.7858L228.457 25.7604ZM228.269 25.3733L228.35 25.4365L228.355 25.4536L228.398 25.5269L228.373 25.5961L228.338 25.6197L228.33 25.6794L228.382 25.7238L228.386 25.7929L228.328 25.813L228.306 25.7385L228.263 25.7238L228.224 25.7131L228.183 25.5926L228.241 25.6103L228.225 25.4359L228.205 25.401L228.269 25.3733ZM228.111 24.8578L228.141 24.83L228.202 24.8401L228.205 24.8868L228.178 25.0576L228.147 25.1079L228.075 25.0192L228.071 24.9601L228.111 24.8578ZM220.766 22.8818L220.633 22.7884C220.633 22.7884 220.79 22.6146 220.748 22.6146C220.706 22.62 220.4 22.6395 220.4 22.6395L220.437 22.7606L220.324 22.7825L220.292 22.7317L220.291 22.6838L220.084 22.6785L220.041 22.7648L219.921 22.8753L219.924 22.948C220.257 22.9528 220.579 22.9628 220.9 22.9758L220.766 22.8818ZM229.952 28.3571C229.933 28.363 229.908 28.3689 229.887 28.3748L229.901 28.3795C229.901 28.3795 229.933 28.3683 229.952 28.3571ZM213.142 20.1007C213.175 20.1007 213.208 20.0925 213.228 20.0889C213.241 20.0889 213.257 20.0771 213.276 20.0659C213.231 20.0756 213.186 20.0873 213.142 20.1007ZM213.497 20.0812L213.938 20.0541V20.1273C214.204 20.0174 214.479 19.9264 214.758 19.8353L214.763 19.8194L214.999 19.7236C214.758 19.7615 214.518 19.8011 214.28 19.8478L214.094 20.005L213.953 19.9169C213.859 19.9335 213.772 19.9547 213.678 19.9754L213.497 20.0812ZM207.907 22.2895V22.2689C207.907 22.2488 207.857 22.0383 207.857 22.0383L207.749 21.9444C207.749 21.9444 207.599 21.8557 207.579 21.8557C207.558 21.8557 207.419 21.8504 207.419 21.8504L207.358 21.8456C205.576 22.844 204.385 24.0953 204.045 25.4584C204.443 25.0742 205.142 24.7177 206.082 24.3986C206.473 23.6355 207.095 22.9256 207.907 22.2895ZM206.027 28.0261C205.092 27.7063 204.401 27.3416 204.018 26.9603C204.595 29.6852 208.578 31.958 213.932 32.805C210.062 32.0035 207.085 30.2208 206.027 28.0261ZM207.816 22.5987L207.901 22.6229C207.901 22.6229 207.993 22.6111 207.964 22.594C207.929 22.5745 207.892 22.5579 207.892 22.5579L207.922 22.5106C207.883 22.5402 207.85 22.5691 207.816 22.5987Z" fill="black"></path>
    <path d="M213.218 32.116C213.218 32.116 213.323 32.2105 213.339 32.2312C213.359 32.2531 213.493 32.3465 213.493 32.3465C213.493 32.3465 213.323 32.3494 213.258 32.3152C213.194 32.2844 212.879 32.0876 212.837 32.0628C212.795 32.0397 212.587 31.821 212.542 31.7601C212.52 31.7318 212.509 31.7122 212.497 31.6987C211.237 30.9551 210.235 29.9821 209.628 28.8715C208.324 28.6587 207.198 28.4039 206.28 28.106C207.496 30.4184 210.938 32.2342 215.294 32.8507C214.576 32.6636 213.877 32.4081 213.208 32.0876L213.218 32.116ZM230.461 28.437C230.48 28.4725 230.519 28.502 230.556 28.5263C230.65 28.3886 230.731 28.2467 230.807 28.106C230.685 28.1482 230.562 28.186 230.437 28.2195L230.45 28.2449C230.453 28.2958 230.421 28.3596 230.461 28.437ZM207.839 22.7301L207.774 22.6331C207.163 23.1474 206.674 23.7148 206.333 24.3165C206.694 24.2034 207.058 24.1024 207.426 24.0139C207.38 24.0003 207.368 23.9838 207.368 23.9838L207.332 23.7597L207.344 23.648C207.344 23.648 207.399 23.3986 207.493 23.3229C207.589 23.2473 207.774 23.0475 207.839 22.9736C207.908 22.8926 207.901 22.811 207.901 22.811L207.952 22.7992L207.839 22.7301ZM207.923 24.3035C207.892 24.2758 207.834 24.2456 207.834 24.2456C207.834 24.2456 207.761 24.3059 207.761 24.3301C207.761 24.3514 207.858 24.4685 207.858 24.4685L207.873 24.5595L207.953 24.7061L207.97 24.8237C207.97 24.8237 208.012 24.8604 208.017 24.8728C208.028 24.8948 208.041 24.9158 208.056 24.9354L208.077 24.9732L207.999 24.991L207.895 24.8804L207.85 24.8397L207.881 24.78C207.881 24.78 207.858 24.7279 207.839 24.7132C207.821 24.696 207.797 24.6682 207.751 24.6428C207.701 24.6139 207.641 24.5896 207.641 24.5896L207.727 24.5341L207.715 24.4815C207.715 24.4815 207.677 24.4584 207.677 24.4419V24.3703L207.614 24.2054L207.609 24.1711C207.096 24.2959 206.628 24.4235 206.208 24.5583C205.947 25.0901 205.809 25.6741 205.805 26.2665C205.805 26.8169 205.931 27.3512 206.162 27.8625C207.064 28.1604 208.197 28.4264 209.503 28.6475C209.128 27.9094 208.932 27.094 208.93 26.2665C208.93 26.0201 208.948 25.7765 208.979 25.5377C208.908 25.5159 208.918 25.5159 208.878 25.5029C208.839 25.4922 208.759 25.452 208.759 25.452C208.759 25.452 208.729 25.4296 208.703 25.4296C208.664 25.4268 208.626 25.4167 208.59 25.4L208.491 25.3462L208.409 25.2505L208.39 25.2038L208.454 25.1252L208.431 25.0034C208.431 25.0034 208.29 24.8846 208.267 24.8592C208.237 24.8367 208.219 24.803 208.202 24.7983C208.184 24.7912 208.134 24.7658 208.141 24.738C208.146 24.7102 208.155 24.7203 208.146 24.6878C208.134 24.6499 208.069 24.5577 208.069 24.5577C208.069 24.5577 207.974 24.4377 207.952 24.3993C207.933 24.3697 207.953 24.3337 207.923 24.3035ZM209.196 21.0691L209.51 20.9781C209.51 20.9781 209.867 20.9148 209.89 20.9101C209.909 20.9101 209.913 20.9633 209.913 20.9633L210.1 20.9403L210.183 20.8912L210.285 20.89C210.415 20.8291 210.545 20.7718 210.682 20.7162C210.649 20.7186 210.608 20.7452 210.51 20.7753C210.371 20.8132 210.565 20.7085 210.358 20.6861C210.325 20.6737 210.431 20.6211 210.559 20.5773C210.682 20.5401 210.632 20.5549 210.857 20.5147C211.079 20.4579 211.079 20.5348 211.079 20.5348C211.079 20.5348 211.103 20.5348 211.122 20.5401C211.923 20.2347 212.746 19.9893 213.584 19.806C213.593 19.8012 213.608 19.7983 213.608 19.7983C213.608 19.7983 213.643 19.7882 213.684 19.7705C211.967 20.0589 210.381 20.4946 209.026 21.0478C209.041 21.0502 209.047 21.0526 209.062 21.0555C209.129 21.0768 209.196 21.0691 209.196 21.0691ZM218.09 19.618C218.09 19.618 217.806 19.7971 217.77 19.8225C217.74 19.8467 217.673 20.0436 217.673 20.0897C217.673 20.1405 217.631 20.251 217.631 20.251C217.631 20.251 217.374 20.3539 217.243 20.3894C217.117 20.423 216.991 20.533 216.868 20.6075C216.834 20.6287 216.775 20.6406 216.706 20.6601C216.293 21.2594 215.955 22.0562 215.712 22.9878C216.133 22.973 216.561 22.9576 216.991 22.9464L216.945 22.8376L217.024 22.8524L217.066 22.7785L217.132 22.7933L217.208 22.798L217.294 22.8128L217.493 22.8317C217.586 22.843 217.578 22.7933 217.578 22.7933L217.596 22.6432L217.564 22.5297L217.483 22.4381L217.321 22.3459L217.334 22.2956L217.424 22.2838L217.467 22.3181L217.591 22.2956L217.568 22.2022L217.704 22.1863L217.791 22.1313L217.904 22.0539C217.904 22.0539 217.976 22.0178 218.016 21.9451C218.059 21.8742 218.221 21.8529 218.221 21.8529L218.323 21.8115L218.303 21.7252L218.269 21.6602L218.235 21.6017L218.382 21.5065L218.426 21.6312L218.383 21.766L218.445 21.7778V21.4161L218.427 21.3871L218.289 21.4161C218.289 21.4161 218.167 21.4244 218.117 21.4161C218.061 21.4084 218.044 21.325 218.044 21.325C218.044 21.325 218.044 21.2122 218.032 21.1501C218.009 21.0892 218.062 21.0632 218.118 21.0254C218.18 20.9869 218.204 20.9775 218.262 20.9444C218.324 20.9125 218.404 20.8132 218.422 20.7901L218.445 20.76V19.459C218.383 19.4649 218.312 19.4708 218.245 19.4832L218.09 19.618ZM217.22 21.7666C217.201 21.7666 217.177 21.7908 217.177 21.7908L217.208 21.8919L217.19 21.9356L217.095 21.9528L217.034 21.9835L216.956 21.9989L216.876 21.9628L216.867 21.9315L216.96 21.8783L216.97 21.8263L216.92 21.8074L216.95 21.7193L217.028 21.7299L217.034 21.6685L217.095 21.6253L217.155 21.6685L217.213 21.6507L217.225 21.7016C217.224 21.7016 217.238 21.7571 217.22 21.7666ZM217.781 21.9995L217.712 22.0308L217.785 22.0598L217.781 22.0929L217.582 22.1177L217.457 22.1236L217.374 22.1384L217.245 22.1532L217.278 22.123L217.321 22.0923C217.327 22.0799 217.353 22.055 217.353 22.055H217.424L217.447 22.019C217.447 22.019 217.385 22.0113 217.374 22.0113H217.282L217.279 21.9599L217.345 21.9274V21.8901L217.321 21.8594L217.353 21.831L217.418 21.8529L217.444 21.7849L217.402 21.7418L217.414 21.6838C217.414 21.6838 217.365 21.7158 217.344 21.7004C217.319 21.6909 217.29 21.6673 217.29 21.6673L217.327 21.633C217.327 21.633 217.308 21.5958 217.293 21.594C217.281 21.5834 217.22 21.594 217.22 21.594L217.263 21.5272L217.212 21.4959L217.194 21.4326L217.238 21.4025L217.266 21.4279L217.309 21.3345L217.353 21.3398H217.438L217.435 21.3599L217.362 21.4232L217.385 21.4279L217.457 21.4326L217.54 21.458L217.5 21.5225C217.5 21.5225 217.426 21.555 217.414 21.5686C217.402 21.578 217.406 21.5964 217.406 21.5964H217.482C217.482 21.5964 217.515 21.594 217.531 21.617C217.54 21.6448 217.525 21.6572 217.56 21.6809C217.57 21.6873 217.579 21.6962 217.585 21.7067C217.591 21.7172 217.595 21.729 217.596 21.7412L217.644 21.7772C217.644 21.7896 217.668 21.831 217.668 21.831L217.688 21.87L217.673 21.9002L217.711 21.9268L217.752 21.8919L217.795 21.9268L217.781 21.9995ZM229.451 22.178L229.513 22.1963L229.582 22.2531L229.655 22.2862L229.637 22.3287L229.651 22.3742L229.737 22.4274L229.724 22.4611L229.688 22.4877L229.718 22.5427L229.662 22.5811L229.729 22.6757L229.692 22.7289C230.256 23.2473 230.7 23.8058 231.001 24.3981C231.948 24.7173 232.644 25.0737 233.04 25.4579C232.715 24.1374 231.585 22.9263 229.892 21.9386C229.842 21.9723 229.809 22.0036 229.809 22.0036V22.0545L229.717 22.0001C229.682 21.9717 229.55 22.0001 229.55 22.0001V22.0302L229.465 21.9835L229.428 22.0249L229.344 22.0184C229.344 22.0184 229.374 22.0852 229.389 22.1106C229.41 22.1378 229.451 22.178 229.451 22.178ZM218.251 22.9021L218.085 22.8566L217.942 22.8838L217.948 22.9346C218.118 22.9346 218.281 22.9275 218.447 22.9275V22.8158L218.384 22.7685L218.251 22.9021ZM214.626 29.3999C214.576 29.4153 214.517 29.4277 214.49 29.4419C214.439 29.4667 214.263 29.5701 214.235 29.618C214.204 29.6671 214.263 29.7859 214.255 29.8172C214.235 29.8545 214.215 29.9071 214.196 29.9348C214.181 29.952 214.124 29.9821 214.124 29.9821C214.124 29.9821 214.151 29.9821 214.095 30.0401C214.046 30.0933 214.033 30.085 214.03 30.1234C214.021 30.163 213.94 30.2664 213.94 30.2664C213.94 30.2664 213.94 30.3078 213.909 30.3309C213.88 30.3557 213.878 30.413 213.831 30.4314C213.794 30.447 213.754 30.4521 213.715 30.4461L213.665 30.4414C214.332 31.3871 215.218 32.1361 216.239 32.5888C216.406 32.5008 216.552 32.5008 216.705 32.5008C216.786 32.5008 216.877 32.4795 216.947 32.4623C216.32 31.7909 215.818 30.734 215.495 29.4425C215.205 29.433 214.915 29.4159 214.626 29.3999ZM217.687 23.2071L217.719 23.3158L217.677 23.3436L217.61 23.4216L217.541 23.4997H217.377L217.285 23.5676L217.209 23.5085L217.139 23.4453L217.08 23.4536L216.986 23.4246V23.3566L216.934 23.2827L216.976 23.1397C216.535 23.1486 216.096 23.1639 215.663 23.1823C215.425 24.1921 215.306 25.2265 215.309 26.2642C215.309 26.7619 215.338 27.246 215.384 27.7124C215.416 27.7567 215.458 27.8235 215.464 27.8649C215.462 27.9236 215.449 27.9814 215.423 28.0345C215.48 28.4619 215.547 28.8715 215.643 29.2628C216.549 29.3 217.493 29.3243 218.447 29.3243V26.782L218.437 26.7784C218.413 26.7589 218.368 26.6188 218.281 26.5816C218.197 26.5461 217.964 26.6803 217.964 26.6803C217.964 26.6803 217.836 26.7471 217.746 26.753C217.652 26.7589 217.621 26.7441 217.621 26.7441L217.418 26.7376C217.418 26.7376 217.299 26.8245 217.254 26.8245C217.208 26.8245 217.136 26.7684 217.109 26.7176C217.092 26.6614 216.859 26.5124 216.859 26.5124C216.859 26.5124 216.738 26.4137 216.755 26.3676C216.767 26.3215 216.629 26.2051 216.617 26.1696C216.617 26.1341 216.493 26.0987 216.457 26.0437C216.409 25.9828 216.419 25.9533 216.428 25.8859C216.44 25.8108 216.347 25.7358 216.347 25.7358L216.424 25.6359C216.424 25.6359 216.448 25.4432 216.444 25.3545C216.444 25.2652 216.406 25.2842 216.418 25.228C216.434 25.1707 216.357 25.1305 216.347 25.0093C216.347 24.881 216.434 24.7995 216.434 24.7995C216.434 24.7995 216.499 24.6434 216.535 24.6056C216.562 24.5754 216.659 24.3692 216.687 24.355C216.714 24.3384 216.899 24.2982 216.933 24.1717C216.944 24.1327 216.953 24.1126 216.956 24.1026L216.941 24.008L216.961 23.9465C216.989 23.8921 216.961 23.9199 216.985 23.8851C217.019 23.8438 217.065 23.8138 217.117 23.7988C217.146 23.7828 217.232 23.6876 217.232 23.6876L217.225 23.6208L217.29 23.6078L217.374 23.6569L217.534 23.6616L217.644 23.6096L217.73 23.5759C217.73 23.5759 217.806 23.5269 217.861 23.5079C217.919 23.4943 218.032 23.5718 218.184 23.5186C218.33 23.4666 218.313 23.5044 218.313 23.5044L218.447 23.5274V23.1208C218.215 23.1208 217.986 23.1208 217.76 23.1249L217.687 23.2071Z" fill="black"></path>
    <path d="M213.62 30.6991C213.607 30.7434 213.577 30.7949 213.54 30.7978C213.478 30.8025 213.383 30.8215 213.353 30.8203C213.322 30.8203 213.223 30.8126 213.223 30.8126C213.223 30.8126 213.235 30.8983 213.235 30.9143C213.235 30.9414 213.272 30.9728 213.256 30.9988C213.235 31.0207 213.176 31.0384 213.176 31.0384L213.058 30.9946C213.058 30.9946 213.029 31.0071 213.029 31.0242C213.029 31.0496 213.068 31.1188 213.068 31.1188L213.146 31.1489L213.124 31.1997L213.067 31.2287L213.099 31.3002L213.093 31.3676C213.093 31.3676 213.007 31.3966 212.999 31.412C212.991 31.4326 213.008 31.5136 213.05 31.5349C213.099 31.5538 213.156 31.578 213.156 31.578L213.184 31.6389L213.168 31.7004C213.168 31.7004 213.128 31.7453 213.128 31.7672C213.128 31.7808 213.121 31.8086 213.116 31.8304C213.986 32.2704 214.909 32.5945 215.862 32.7945C215.914 32.7715 215.977 32.736 216.039 32.7035C215.089 32.2578 214.264 31.5692 213.62 30.6991ZM217.169 32.4339L217.663 32.4523L218.073 32.6574L218.446 32.7035V29.5116C217.5 29.5063 216.578 29.4909 215.685 29.4519C216.013 30.757 216.535 31.808 217.169 32.4339ZM205.925 27.7809C205.722 27.302 205.617 26.7876 205.615 26.2677C205.615 25.7085 205.74 25.1594 205.966 24.644C204.936 24.9986 204.245 25.4012 203.975 25.8238C203.957 25.9716 203.941 26.117 203.941 26.2677C203.941 26.3759 203.946 26.4852 203.961 26.5934C204.217 27.0237 204.903 27.4233 205.925 27.7809ZM219.157 29.0949C219.132 29.073 219.139 28.9613 219.139 28.9252C219.141 28.8927 219.145 28.7006 219.145 28.6392C219.145 28.5735 219.243 28.466 219.243 28.4163C219.25 28.3553 219.241 28.2934 219.216 28.2372C219.184 28.1621 219.226 28.1426 219.191 28.0534C219.155 27.9576 218.795 27.4103 218.795 27.4103L218.725 27.3281C218.725 27.3281 218.785 27.2418 218.814 27.2022C218.849 27.1608 218.772 27.1212 218.772 27.0852C218.772 27.0509 218.801 27.0018 218.823 26.9498C218.849 26.8907 218.768 26.8334 218.707 26.7825C218.677 26.7654 218.653 26.7666 218.637 26.7755V29.3236C218.86 29.3236 219.077 29.3236 219.3 29.3189C219.253 29.2261 219.179 29.1091 219.157 29.0949ZM218.885 23.9353L219.019 23.9849L219.067 24.0949L219.202 24.1303L219.345 24.193L219.44 24.1073L219.45 24.031L219.498 24.0032L219.637 23.9607L219.78 24.0369L219.902 24.0819C219.902 24.0819 219.976 24.0866 220.021 24.1002C220.066 24.1197 220.169 24.1256 220.195 24.1297C220.226 24.1321 220.263 24.1256 220.263 24.1256L220.349 24.0943L220.459 24.1433L220.564 24.1416L220.632 24.1002L220.66 24.0192L220.688 23.9039L220.728 23.8425C220.738 23.8372 220.728 23.7727 220.728 23.7727L220.694 23.716C220.694 23.716 220.706 23.6681 220.706 23.6616L220.701 23.6025L220.659 23.6244L220.599 23.5836L220.519 23.6651C220.519 23.6651 220.429 23.6711 220.413 23.6616C220.386 23.6504 220.384 23.6244 220.362 23.6001C220.345 23.5741 220.258 23.5777 220.258 23.5777L220.231 23.6344L220.15 23.6374L220.117 23.5842L220.015 23.5741L219.868 23.4447V23.314C219.868 23.314 219.833 23.2721 219.833 23.2419C219.833 23.2171 219.81 23.1769 219.81 23.1769L219.738 23.1663L219.713 23.194L219.635 23.2065L219.572 23.1958V23.2815L219.673 23.411L219.625 23.4724V23.5735L219.586 23.5842L219.522 23.5274L219.439 23.4388L219.449 23.3986L219.35 23.3253L219.274 23.1769L219.28 23.1249H219.09C219.125 23.1432 219.201 23.2171 219.201 23.2171V23.2508L219.145 23.2171C219.145 23.2171 219.108 23.194 219.09 23.1887C219.069 23.1787 219.059 23.2171 219.059 23.2171C219.049 23.2295 219.059 23.2597 219.059 23.2597C219.078 23.2682 219.096 23.2783 219.114 23.2898V23.3276L219.076 23.34L219.073 23.385L219.035 23.4275H219.002L218.996 23.4045L219.03 23.372L219.018 23.3643L219.024 23.3542L218.991 23.2366L218.839 23.1308L218.82 23.119H218.637V23.651L218.651 23.6876L218.637 23.7012V23.8188C218.689 23.8638 218.768 23.924 218.784 23.9305C218.8 23.9353 218.885 23.9353 218.885 23.9353ZM220.543 23.7083L220.584 23.7006L220.549 23.7367L220.543 23.7585L220.504 23.8094L220.458 23.8041L220.404 23.7597L220.543 23.7083ZM219.674 23.6781L219.843 23.7089L219.873 23.7325H219.898V23.7568H219.784L219.674 23.7089V23.6781ZM218.992 32.7011C219.108 32.6089 219.654 32.4286 219.654 32.4286C219.654 32.4286 219.739 32.4434 219.854 32.4676C220.503 31.8405 221.037 30.7795 221.369 29.4554C221.288 29.459 221.209 29.4602 221.127 29.4631C221.122 29.5057 221.139 29.5057 221.113 29.5423C221.084 29.5861 221.054 29.5784 221.006 29.5967C220.957 29.6144 220.932 29.7203 220.932 29.7203C220.932 29.7203 220.959 29.8556 220.951 29.8946C220.945 29.9348 220.926 29.9821 220.865 30.043C220.805 30.1015 220.64 30.2895 220.557 30.3876C220.468 30.4834 220.352 30.5259 220.187 30.5336C220.023 30.5425 219.878 30.6672 219.878 30.6672L219.772 30.4768C219.772 30.4768 219.767 30.371 219.76 30.3362C219.76 30.2924 219.627 30.1547 219.6 30.0666C219.577 29.9827 219.435 29.8219 219.429 29.7965C219.409 29.724 219.398 29.6494 219.397 29.5743C219.397 29.5548 219.384 29.5335 219.371 29.5069C219.126 29.5069 218.883 29.5069 218.637 29.5104V32.7295C218.716 32.7437 218.901 32.7715 218.992 32.7011ZM219.309 32.1585L219.378 32.2956L219.086 32.4286L219.015 32.2495L219.309 32.1585ZM218.879 22.7903C218.879 22.7903 218.76 22.6792 218.745 22.6449C218.729 22.6112 218.683 22.655 218.666 22.6751C218.648 22.6875 218.651 22.7495 218.651 22.7495C218.657 22.772 218.717 22.811 218.762 22.8441C218.811 22.8837 218.79 22.8666 218.813 22.8973C218.826 22.9074 218.837 22.9221 218.84 22.9346H219.07L218.883 22.7992M215.111 28.4281C215.096 28.4346 215.078 28.5133 215.078 28.5257C215.078 28.5257 215.066 28.7184 215.066 28.7432C215.066 28.7698 214.973 29.125 214.931 29.2249C215.098 29.2338 215.271 29.2409 215.448 29.2503C215.371 28.9215 215.309 28.5894 215.261 28.2549C215.225 28.291 215.197 28.3176 215.186 28.3359C215.18 28.3619 215.134 28.4216 215.111 28.4281ZM221.624 20.1428L221.7 20.1996L221.678 20.2079C221.962 20.3935 222.237 20.5992 222.492 20.8291L222.499 20.8037C222.499 20.8037 222.52 20.5749 222.515 20.494C222.512 20.4106 222.618 20.4378 222.752 20.4106C222.833 20.3941 222.99 20.3491 223.148 20.3255C222.269 19.9715 221.351 19.7252 220.414 19.592C220.821 19.7332 221.214 19.9218 221.578 20.1434L221.624 20.1428ZM219.145 20.4567L219.643 20.4691C219.643 20.4691 219.674 20.5448 219.732 20.5495C219.794 20.5495 220.338 20.7446 220.338 20.7446L220.423 20.7712C219.919 19.9898 219.304 19.508 218.636 19.4619V20.5767C218.674 20.5531 218.693 20.5542 218.772 20.5448C218.882 20.5276 219.145 20.4567 219.145 20.4567ZM218.887 21.8227L219.044 21.818L219.171 21.7955L219.191 21.7211L219.202 21.6324L219.263 21.5526C219.263 21.5526 219.316 21.5561 219.298 21.5473C219.281 21.5355 219.296 21.4302 219.296 21.4302H219.666C219.711 21.4302 219.844 21.3333 219.903 21.3244C219.966 21.3079 219.874 21.2098 219.874 21.2098L219.681 21.2801L219.338 21.3457L219.189 21.2801L219.172 21.182C219.172 21.182 219.104 21.0833 219.191 21.046C219.286 21.0082 219.338 20.8929 219.338 20.8929L219.182 20.8214L219.073 20.8669L219.126 20.9432L219.035 21.0023L218.888 21.1116L218.883 21.2529L219.053 21.3617L218.917 21.5083L218.742 21.6667L218.637 21.6519V21.8263L218.707 21.854L218.887 21.8227ZM220.666 20.8214L220.851 20.7907C220.851 20.7907 221.198 20.7818 221.406 20.7629C221.618 20.741 221.523 20.6518 221.523 20.6518L221.917 20.6719L221.912 20.5915C221.754 20.4768 221.59 20.3685 221.423 20.267L221.406 20.2735L221.214 20.475L221.306 20.5915L221.191 20.6175L220.959 20.4313L221.194 20.1783L221.257 20.1724C220.699 19.8591 220.091 19.6435 219.46 19.5346C219.901 19.7971 220.312 20.2398 220.666 20.8214ZM215.204 21.0342V20.7972C215.204 20.7446 215.277 20.6583 215.277 20.6583C215.277 20.6583 215.318 20.5342 215.353 20.5217C215.378 20.5141 215.337 20.4762 215.314 20.4538C214.829 20.7848 214.392 21.1826 214.015 21.6389C214.006 21.6744 214.002 21.727 213.974 21.7453C213.937 21.7796 214.087 21.8286 214.106 21.8286C214.134 21.8448 214.159 21.8649 214.181 21.8883L214.027 21.9403L214.063 21.9457L214.181 21.9409L214.277 21.9835L214.313 22.016L214.281 22.0887L214.246 22.1189L214.057 22.1939C214.057 22.1939 213.897 22.2802 213.878 22.2826C213.844 22.2937 213.81 22.3063 213.777 22.3204L213.509 22.3151C213.434 22.4392 213.354 22.5728 213.28 22.7046L213.465 22.6958L213.608 22.6272L213.657 22.6674L213.518 22.7726L213.309 22.8004L213.189 22.8802C213.143 22.9688 213.1 23.0605 213.051 23.1562C213.872 23.0851 214.695 23.0331 215.519 23.0002C215.751 22.097 216.078 21.3114 216.468 20.6973C216.379 20.7097 216.306 20.7162 216.306 20.7162L215.891 20.9704L215.649 21.2299L215.523 21.1873L215.32 21.1572L215.204 21.0342ZM214.298 22.5031C214.298 22.5031 214.284 22.5645 214.258 22.5811C214.22 22.5965 214.057 22.5965 214.057 22.5965L214.006 22.558L213.79 22.5616L213.782 22.496L213.946 22.3949L214.057 22.2483L214.192 22.1703L214.214 22.2985L214.119 22.347L214.246 22.3293C214.246 22.3293 214.312 22.347 214.312 22.3701C214.311 22.3831 214.298 22.5031 214.298 22.5031ZM230.679 28.6746L230.683 28.6894C230.708 28.745 230.806 28.8744 230.847 28.9353C230.89 28.992 230.932 28.9524 230.896 29.0653C230.868 29.1794 230.914 29.2036 230.786 29.3C230.65 29.4052 230.392 29.7203 230.302 29.8361C230.216 29.952 230.199 29.9987 230.125 30.0099C230.053 30.0229 229.916 30.0678 229.865 30.0832C229.797 30.0936 229.73 30.1003 229.661 30.1033C229.607 30.1116 229.572 30.1411 229.493 30.1169C229.427 30.1009 229.406 30.0926 229.393 30.0601C227.917 31.2943 225.741 32.2602 223.174 32.7975C225.314 32.457 227.278 31.8836 228.914 31.1004C231.292 29.9632 232.733 28.5133 233.066 26.9581C232.683 27.3411 231.99 27.7052 231.054 28.025C230.946 28.251 230.821 28.4682 230.679 28.6746ZM229.842 30.3876C229.772 30.4448 229.703 30.5037 229.636 30.5643L229.539 30.5886L229.607 30.3291L229.687 30.3362L229.855 30.3031C229.855 30.3031 229.871 30.3787 229.842 30.3876ZM231.114 24.644C231.349 25.1612 231.468 25.7074 231.468 26.2695C231.466 26.7885 231.362 27.302 231.162 27.7809C232.177 27.4233 232.87 27.0237 233.118 26.5934C233.134 26.4864 233.14 26.3765 233.14 26.2695C233.14 26.117 233.129 25.9716 233.106 25.8238C232.841 25.4018 232.142 24.9998 231.114 24.644Z" fill="black"></path>
    <path d="M224.014 29.2912C223.231 29.3551 222.408 29.41 221.562 29.4485C221.233 30.7648 220.705 31.8335 220.065 32.5044C220.305 32.5452 220.589 32.5978 220.714 32.6208C222.157 32.0102 223.334 30.8115 224.014 29.2912ZM212.959 23.3585C212.581 24.2413 212.381 25.19 212.371 26.1502H212.392C212.425 26.1378 212.55 26.1147 212.55 26.1147C212.55 26.1147 212.601 26.1425 212.674 26.1691C212.714 26.179 212.753 26.198 212.785 26.2247V26.2684L212.865 26.2873C212.865 26.2873 212.881 26.3222 212.941 26.3464C212.998 26.3648 213.047 26.425 213.047 26.441C213.047 26.4546 213.063 26.4759 213.063 26.4759C213.063 26.4759 213.083 26.4528 213.131 26.5001C213.174 26.5427 213.176 26.5817 213.236 26.5705C213.285 26.5634 213.364 26.5314 213.434 26.5545C213.504 26.5752 213.653 26.6372 213.683 26.6597C213.724 26.6906 213.757 26.7305 213.779 26.7762C213.785 26.7974 213.826 26.8619 213.826 26.8619L213.887 26.9866C213.887 26.9866 213.887 27.041 213.882 27.064C213.877 27.0853 213.917 27.1332 213.939 27.1409C213.965 27.1485 214.047 27.1645 214.047 27.1645L214.104 27.2331C214.104 27.2331 214.276 27.2201 214.291 27.2372C214.313 27.2591 214.493 27.3282 214.493 27.3477C214.493 27.3643 214.549 27.382 214.579 27.3767C214.602 27.372 214.741 27.45 214.77 27.4453C214.797 27.4429 214.841 27.4198 214.899 27.437C214.957 27.4595 214.986 27.4648 215.035 27.5103C215.067 27.5327 215.129 27.5783 215.18 27.6102C215.141 27.1642 215.12 26.7167 215.12 26.269C215.12 25.1625 215.247 24.1233 215.466 23.1924C214.602 23.2326 213.758 23.2911 212.959 23.3585Z" fill="black"></path>
    <path d="M227.229 28.9111C226.236 29.0661 225.238 29.1853 224.236 29.2687C223.577 30.792 222.435 32.0132 221.031 32.6858C221.139 32.7053 221.265 32.7284 221.389 32.7538C224.025 32.1509 226.158 30.734 227.229 28.9111Z" fill="black"></path>
    <path d="M229.372 29.7867C229.372 29.7867 229.287 29.8222 229.256 29.8423C229.219 29.8547 229.151 29.8813 229.141 29.8594C229.127 29.8435 229.141 29.7359 229.061 29.6933C228.979 29.6549 228.794 29.6679 228.769 29.6679C228.747 29.6679 228.602 29.7016 228.512 29.7187C228.419 29.7382 228.43 29.7069 228.329 29.7867C228.225 29.8701 228.265 29.8766 228.184 29.8955C228.1 29.9008 228.066 29.8754 227.988 29.8978C227.906 29.9179 227.883 29.9357 227.799 29.9569C227.708 29.9853 227.61 30.0438 227.577 30.0036C227.55 29.9682 227.492 29.9203 227.492 29.9203C227.492 29.9203 227.671 29.7962 227.666 29.7223C227.666 29.6531 227.664 29.3759 227.654 29.3115C227.645 29.2411 227.63 29.263 227.638 29.1856C227.65 29.107 227.726 28.9078 227.749 28.8753C227.78 28.8482 227.814 28.8257 227.851 28.8085C227.726 28.8303 227.596 28.8546 227.468 28.8717C226.45 30.71 224.387 32.1664 221.823 32.8426L221.827 32.845C224.998 32.3916 227.688 31.3011 229.373 29.844L229.372 29.7867ZM224.9 26.5274L224.862 26.5032L224.845 26.4654C224.821 27.3557 224.643 28.2353 224.321 29.0656C225.336 28.9699 226.347 28.8426 227.354 28.6837C227.511 28.3815 227.64 28.0658 227.74 27.7404L227.586 27.6972L227.369 27.7031L227.201 27.6487L227.206 27.618L227.12 27.5819L227.117 27.5311L227.235 27.5187C227.259 27.5187 227.294 27.5418 227.294 27.5418C227.294 27.5418 227.39 27.5867 227.426 27.5867C227.452 27.5856 227.477 27.5896 227.501 27.5985L227.55 27.5494L227.71 27.5997L227.775 27.6216C227.811 27.5051 227.839 27.3863 227.861 27.2704L227.747 27.2616L227.675 27.284L227.631 27.2539L227.502 27.2415L227.477 27.1032L227.399 27.0234L227.387 26.9158L227.443 26.8254L227.565 26.865L227.626 26.758L227.764 26.703L227.851 26.5877L227.947 26.5529L227.955 26.5245C227.962 26.4376 227.971 26.3507 227.971 26.2668C227.971 25.8193 227.91 25.3896 227.799 24.967C227.751 25.0024 227.698 25.0294 227.641 25.0468C227.569 25.0657 227.375 25.1307 227.375 25.1307L227.294 25.1609V25.2454L227.24 25.2466L227.198 25.1378C227.198 25.1378 227.115 25.1053 227.021 25.1609C226.928 25.2188 226.906 25.3742 226.906 25.3742L226.987 25.4528C226.987 25.4528 227.025 25.4954 227.071 25.5261C227.116 25.5563 227.23 25.6562 227.23 25.6562C227.23 25.6562 227.308 25.7679 227.303 25.8187C227.295 25.8713 227.303 26.0209 227.303 26.0209L227.18 26.0936L227.021 26.252L226.983 26.2502L226.97 26.1669L226.994 26.1166L226.891 26.0983C226.891 26.0983 226.805 26.0534 226.801 26.0292C226.799 26.0061 226.685 25.9151 226.685 25.9151L226.635 25.9127L226.578 25.9003L226.574 25.8347L226.515 25.8371L226.522 25.957L226.476 26.1279L226.488 26.2094L226.522 26.2029L226.562 26.2508C226.562 26.2508 226.629 26.3578 226.632 26.3714L226.684 26.4086C226.684 26.4086 226.728 26.4246 226.774 26.4577C226.817 26.4967 226.864 26.57 226.887 26.5948C226.91 26.6102 226.914 26.7722 226.919 26.7952C226.929 26.8171 226.981 26.8791 226.981 26.8791L226.941 26.8963L226.714 26.7592C226.714 26.7592 226.604 26.5588 226.593 26.5032C226.587 26.4524 226.443 26.2886 226.411 26.2686C226.369 26.2514 226.422 26.0634 226.413 25.9801C226.411 25.8932 226.301 25.7431 226.299 25.6887C226.294 25.6319 226.185 25.4972 226.185 25.4972C226.185 25.4972 226.193 25.5202 226.176 25.5604C226.164 25.6018 226.078 25.6438 226.078 25.6438L225.981 25.6184C225.981 25.6184 225.992 25.4428 225.969 25.4322C225.94 25.4209 225.883 25.2909 225.809 25.2631C225.743 25.2341 225.705 25.1201 225.705 25.0905C225.699 25.0539 225.598 25.0267 225.598 25.0267L225.566 25.0681L225.462 25.0935H225.391L225.259 25.1396L225.27 25.2064C225.27 25.2064 225.259 25.2466 225.222 25.2643C225.186 25.2862 225.071 25.4073 225.071 25.4073C225.017 25.4462 224.972 25.4964 224.939 25.5545C224.935 25.5823 224.839 25.6373 224.839 25.6373L224.822 25.6467C224.839 25.8223 224.846 26.0037 224.846 26.184C224.858 26.1929 224.981 26.33 224.99 26.3448C224.997 26.3731 225.001 26.402 225.002 26.4311L224.99 26.4784L224.9 26.5274ZM227.284 25.431L227.198 25.4085C227.171 25.4014 227.179 25.3476 227.179 25.3476L227.225 25.2743H227.317L227.362 25.285L227.337 25.3937L227.284 25.431ZM226.202 26.5334L226.262 26.5635L226.379 26.5694L226.422 26.6445L226.561 26.7379L226.67 26.8106L226.783 26.9081L226.875 26.9625L226.94 26.9956L226.913 27.0659L226.949 27.0848L227.022 27.1617L227.126 27.2184L227.111 27.4791L227.021 27.4897C227.021 27.4897 226.869 27.3396 226.812 27.3236C226.756 27.3006 226.714 27.2427 226.709 27.2072C226.701 27.1771 226.628 27.1103 226.628 27.1103L226.538 27.0269C226.538 27.0269 226.5 26.8874 226.492 26.8667C226.464 26.8412 226.433 26.8182 226.401 26.7982L226.303 26.7337C226.303 26.7337 226.16 26.5623 226.149 26.544C226.147 26.5274 226.202 26.5334 226.202 26.5334ZM229.354 23.8238L229.389 23.9473C229.883 24.0632 230.335 24.1844 230.747 24.3168C230.266 23.4532 229.474 22.6623 228.44 21.9861L228.41 21.9767L228.351 21.9938C228.351 21.9938 228.329 21.9997 228.265 22.0009C228.203 22.0044 228.1 21.9767 228.006 21.9713C227.91 21.9637 227.91 21.9855 227.91 21.9855L227.823 22.203L227.743 22.3189L227.774 22.3289L227.893 22.3514L227.943 22.417L228.034 22.4182L228.045 22.3768C228.045 22.3768 228.215 22.4472 228.251 22.4631C228.29 22.4809 228.363 22.5205 228.363 22.5205C228.363 22.5205 228.399 22.5642 228.402 22.5819C228.41 22.5973 228.462 22.6883 228.486 22.7173C228.513 22.7451 228.595 22.9041 228.595 22.9041L228.582 22.9579C228.582 22.9579 228.596 23.0282 228.602 23.0442C228.608 23.056 228.575 23.1098 228.557 23.1488C228.547 23.1925 228.514 23.2735 228.514 23.2735L228.418 23.3533L228.336 23.3368L228.288 23.2995C228.288 23.2995 228.261 23.3214 228.261 23.3492C228.261 23.384 228.17 23.4254 228.17 23.4254L228.233 23.5023L228.154 23.5714L228.109 23.5756L228.148 23.6471C228.148 23.6471 228.248 23.6896 228.294 23.7227C228.557 23.7706 228.81 23.8191 229.047 23.8758L229.141 23.8486L229.177 23.6867L229.114 23.6057L229.104 23.5099L229.171 23.5212L229.217 23.572L229.343 23.6636L229.297 23.7677L229.354 23.8238ZM228.862 23.0105L228.767 22.884L228.684 22.803L228.58 22.6795L228.419 22.5388L228.398 22.4732L228.625 22.6357L228.84 22.7847L228.857 22.9035L228.961 23.0418L228.914 23.0731L228.862 23.0105ZM229.294 23.348L229.256 23.4491L229.145 23.4059L229.088 23.4177L229.106 23.4686L229.066 23.4792L228.966 23.3994C228.966 23.3994 228.961 23.3403 229.007 23.3362C229.056 23.3362 229.017 23.2865 229.017 23.2865L228.932 23.1778V23.1482L229.144 23.2605L229.327 23.2906L229.363 23.3563L229.294 23.348ZM221.88 22.7025L221.831 22.6824L221.791 22.6936L221.703 22.6777L221.632 22.6913L221.568 22.7285L221.495 22.7888L221.484 22.7959C221.5 22.8639 221.525 22.9289 221.539 22.9987C221.62 23.0016 221.7 23.004 221.776 23.0111L221.703 22.9484L221.7 22.894L221.752 22.9277L221.801 22.9047L221.757 22.8793L221.792 22.8402L221.936 22.858L221.948 22.832L221.886 22.8006L221.88 22.7025ZM227.98 23.6619V23.6571C227.989 23.6211 227.936 23.5844 227.936 23.5844C227.936 23.5844 227.83 23.5738 227.786 23.5738C227.763 23.5773 227.726 23.5968 227.699 23.6098C227.794 23.6282 227.89 23.6406 227.98 23.6619ZM210.533 21.0238L210.763 21.009L210.922 20.9884L211.019 21.002L210.98 21.0481C210.98 21.0617 210.992 21.1036 211.006 21.0942C211.026 21.0894 211.09 21.0309 211.09 21.0309V20.9777L211.322 20.9292L211.503 20.9168H211.525C211.525 20.9032 211.525 20.8891 211.515 20.8761C211.515 20.8299 211.369 20.879 211.369 20.879C211.369 20.879 210.925 20.9446 210.891 20.9328C210.863 20.9198 210.798 20.9032 210.813 20.8684C210.842 20.8305 210.957 20.814 210.986 20.8087C210.986 20.8087 210.981 20.8033 210.964 20.7957C210.848 20.8441 210.738 20.8896 210.625 20.9352H210.692L210.682 20.9789L210.533 21.0238ZM227.557 23.7889L227.534 23.7866L227.539 23.7996L227.557 23.7889ZM224.071 20.3754C224.242 20.4044 224.42 20.4694 224.286 20.5001C224.155 20.5279 224.445 20.6355 224.445 20.6355L224.883 20.7289C224.883 20.7289 225.23 20.6845 225.361 20.697C225.495 20.7094 225.759 20.8483 225.759 20.8483L226.19 20.9334L226.413 20.9482L226.431 20.9251C225.086 20.35 223.512 19.9268 221.801 19.6797C222.461 19.8588 223.086 20.0781 223.671 20.3506C223.814 20.3547 223.963 20.3547 224.071 20.3754ZM210.03 24.3848C209.985 24.3741 209.867 24.37 209.867 24.37C209.867 24.37 209.727 24.4072 209.611 24.4226C209.544 24.4267 209.481 24.4811 209.424 24.5384C209.352 24.7382 209.299 24.9421 209.244 25.149C209.266 25.2171 209.31 25.2759 209.369 25.3157C209.429 25.3556 209.5 25.3741 209.571 25.3683C209.758 25.3482 209.904 25.2726 209.904 25.246C209.904 25.2146 210.003 25.1295 210.003 25.1295L210.204 25.1077L210.297 25.1035C210.297 25.1035 210.323 25.1419 210.297 25.1993C210.264 25.259 210.154 25.3683 210.154 25.3683C210.154 25.3683 210.093 25.4328 210.082 25.4794C210.063 25.5273 210.003 25.5681 209.981 25.6113C209.952 25.6461 210.138 25.6367 210.138 25.6367L210.416 25.616C210.416 25.616 210.573 25.6438 210.573 25.6727C210.573 25.7011 210.501 25.9334 210.501 26.0179C210.501 26.1066 210.607 26.1911 210.679 26.2254C210.679 26.2254 210.711 26.2709 210.788 26.242C210.858 26.2142 210.981 26.2006 210.981 26.2006L211.105 26.239L211.181 26.3401L211.207 26.2615L211.283 26.2177C211.283 26.2177 211.327 26.1834 211.327 26.1687C211.327 26.1509 211.29 26.1143 211.354 26.0794C211.417 26.0481 211.344 26.0528 211.417 26.0481C211.484 26.0451 211.494 26.0351 211.59 25.9984C211.684 25.9547 211.707 25.9482 211.707 25.9482L211.733 25.9919L211.682 26.0581V26.1066C211.682 26.1285 211.65 26.1793 211.673 26.1888C211.689 26.1958 211.764 26.1834 211.764 26.1834L211.724 26.0906L211.733 26.0581L211.938 25.9978L212.052 26.0475C212.052 26.0475 212.038 26.09 212.062 26.0948C212.082 26.0995 212.074 26.0995 212.188 26.0995C212.192 25.8642 212.204 25.6319 212.23 25.402H212.224L212.23 25.3595H212.239C212.319 24.6643 212.491 24.0005 212.747 23.3817C212.481 23.4056 212.215 23.4334 211.949 23.465C211.949 23.465 211.934 23.4963 211.921 23.5046C211.873 23.5458 211.827 23.5888 211.782 23.6335L211.785 23.7216C211.785 23.7216 211.526 23.916 211.493 23.9267C211.42 23.9515 211.35 23.9834 211.283 24.0218C211.257 24.0396 211.144 24.1389 211.109 24.1714C211.073 24.2163 211.062 24.3889 211.052 24.4226C211.048 24.451 211.094 24.5461 211.094 24.5662C211.094 24.5863 211.123 24.6147 211.094 24.6543C211.062 24.6904 211.026 24.7225 210.986 24.75L210.934 24.7311C210.934 24.7311 210.904 24.6147 210.891 24.5863C210.881 24.5639 210.855 24.5189 210.855 24.5047C210.855 24.4882 210.863 24.4149 210.863 24.4149L210.842 24.3629C210.842 24.3629 210.78 24.305 210.738 24.3327C210.692 24.3676 210.64 24.37 210.64 24.37C210.64 24.37 210.546 24.2801 210.463 24.2843C210.374 24.289 210.201 24.2163 210.201 24.2925C210.201 24.37 210.334 24.3582 210.201 24.37C210.07 24.3848 210.07 24.3889 210.03 24.3848ZM211.312 25.4328H211.182L211.145 25.3819L211.165 25.3589L211.319 25.4014L211.312 25.4328ZM211.687 25.2726L211.659 25.2507L211.681 25.2146L211.811 25.246L211.928 25.2206C211.928 25.2206 212.002 25.2779 212.022 25.285C212.041 25.2974 212.127 25.3216 212.127 25.3216L212.143 25.3683L212.022 25.3506L211.928 25.3825L211.897 25.3689L211.805 25.457L211.76 25.402H211.514V25.3683L211.627 25.3506L211.7 25.311L211.687 25.2726ZM210.752 24.9368L210.928 24.9475L211.019 24.9552L211.097 24.993L211.227 25.0485L211.338 25.0964L211.416 25.1325L211.536 25.1532L211.543 25.1945L211.492 25.2223L211.389 25.23L211.231 25.2377L211.179 25.2353L211.272 25.1904L211.263 25.1733L211.22 25.1638L211.142 25.1325L211.121 25.0627L211.062 25.0716L210.937 25.0415L210.846 25.0214L210.788 25.0013L210.696 25.045L210.576 25.0769L210.545 25.0633L210.752 24.9368ZM228.7 21.9441C228.858 22.0482 229.008 22.1575 229.151 22.274C229.132 22.2551 229.122 22.2409 229.122 22.2409L229.11 22.1788C229.11 22.1788 229.17 22.1883 229.189 22.1463C229.202 22.1114 229.185 22.0801 229.185 22.0458C229.185 22.0222 229.183 21.9767 229.183 21.9767L229.236 21.9441L229.224 21.9034L229.15 21.8466L229.14 21.7999L229.066 21.8171L229.097 21.8519L229.074 21.8714L229.016 21.9329C229.016 21.9329 228.955 21.8957 228.929 21.8756C228.914 21.8466 228.888 21.8401 228.768 21.8383C228.651 21.8324 228.706 21.9217 228.706 21.9217L228.703 21.9365" fill="black"></path>
    <path d="M223.811 24.9683C223.811 24.9683 223.73 24.9914 223.714 24.9683C223.701 24.947 223.577 24.8938 223.577 24.8938L223.451 24.7401L223.359 24.7413C223.359 24.7413 223.098 24.7786 223.066 24.7656C222.964 24.7419 222.861 24.7216 222.758 24.7047C222.653 24.6881 222.668 24.6538 222.653 24.6261C222.643 24.5971 222.627 24.5634 222.572 24.5634C222.51 24.5634 222.466 24.6154 222.436 24.6142C222.409 24.6048 222.277 24.551 222.252 24.5457C222.2 24.5275 222.152 24.4982 222.112 24.46C222.092 24.4257 222.012 24.2643 221.968 24.2643C221.921 24.2643 221.851 24.2596 221.824 24.2767C221.8 24.2986 221.817 24.3394 221.851 24.3885C221.884 24.4346 221.946 24.5179 221.98 24.5581C222.013 24.593 222.038 24.6172 222.038 24.6621C222.038 24.7041 222.08 24.7396 222.08 24.7396L222.119 24.7543L222.108 24.6805L222.141 24.6533L222.17 24.6964L222.197 24.8223C222.197 24.8223 222.237 24.8489 222.252 24.8477C222.281 24.8435 222.31 24.8435 222.339 24.8477C222.377 24.8477 222.415 24.8436 222.436 24.8164C222.458 24.7803 222.581 24.6509 222.581 24.6509C222.581 24.6509 222.581 24.6988 222.596 24.7667C222.605 24.8347 222.727 24.8755 222.754 24.8867C222.781 24.8992 222.796 24.8927 222.818 24.9074C222.847 24.9198 222.865 24.9642 222.891 24.986C222.905 25.0174 222.93 25.0174 222.93 25.0174C222.93 25.0174 222.913 25.0948 222.842 25.1823C222.771 25.2733 222.789 25.3342 222.789 25.3342C222.789 25.3342 222.737 25.349 222.719 25.3738C222.709 25.3968 222.727 25.4193 222.679 25.4299C222.633 25.4388 222.616 25.4855 222.573 25.4979C222.53 25.518 222.492 25.5233 222.406 25.5559C222.316 25.5919 222.359 25.6599 222.359 25.6599C222.252 25.6847 222.071 25.771 221.93 25.8337C221.932 25.9182 221.932 25.9986 221.932 26.0796C221.953 26.07 221.976 26.0667 221.999 26.0701C222.043 26.0855 222.037 26.0606 222.08 26.0565C222.1 26.0546 222.121 26.0546 222.141 26.0565L222.264 25.9903L222.316 25.985C222.316 25.985 222.336 26.1268 222.291 26.2084C222.252 26.2876 222.243 26.4957 222.185 26.5914C222.126 26.6831 222.037 26.783 221.971 26.8598C221.958 26.8722 221.94 26.8899 221.921 26.9118C221.888 27.6992 221.783 28.4821 221.609 29.2507C222.442 29.2131 223.274 29.1575 224.104 29.0841C224.455 28.2358 224.652 27.2966 224.656 26.3107L224.62 26.3302C224.62 26.3302 224.541 26.2598 224.507 26.1895C224.474 26.1215 224.427 26.0707 224.339 25.8987C224.246 25.7231 224.2 25.651 224.171 25.5765L224.063 25.2497C224.063 25.2497 224.081 25.1953 224.059 25.1545C224.046 25.1054 224.05 25.0995 224.05 25.0995L224.019 25.0647L223.998 25.1303C223.998 25.1303 223.912 25.1823 223.879 25.174C223.842 25.1616 223.731 25.0339 223.731 25.0339C223.731 25.0339 223.762 25.0239 223.787 25.0061C223.811 24.9914 223.811 24.9683 223.811 24.9683ZM227.55 23.4734L227.51 23.5781C227.55 23.5852 227.592 23.5952 227.633 23.5999L227.618 23.5745L227.63 23.4947L227.55 23.4734ZM227.359 20.9932C227.624 21.0157 227.515 21.008 227.824 21.1044C227.944 21.1357 228.219 21.1877 228.511 21.2385C226.994 20.57 225.179 20.0505 223.169 19.7295C224.543 20.0179 225.807 20.4305 226.918 20.9442C227.039 20.9631 227.205 20.9791 227.359 20.9932Z" fill="black"></path>
    <path d="M221.416 29.2628C221.571 28.5978 221.677 27.8773 221.721 27.1095C221.678 27.1508 221.64 27.1993 221.606 27.2365C221.485 27.3808 221.368 27.7543 221.368 27.7543L221.429 27.8288C221.429 27.8288 221.461 27.9057 221.454 27.9476C221.445 27.9854 221.457 28.1072 221.457 28.1072C221.457 28.1072 221.521 28.1628 221.53 28.2107C221.545 28.2603 221.526 28.2603 221.54 28.3673C221.552 28.4761 221.546 28.5027 221.546 28.6043C221.553 28.7036 221.345 28.8567 221.259 28.8833C221.179 28.9123 221.191 28.9625 221.152 29.008C221.11 29.0482 221.092 29.1197 221.092 29.1197C221.092 29.1197 221.123 29.1706 221.142 29.2699C221.227 29.2675 221.323 29.2663 221.416 29.2628ZM213.022 20.2073C213.084 20.1565 212.95 20.1831 212.95 20.1831L212.716 20.2706L212.676 20.2245C212.26 20.3356 211.857 20.4686 211.466 20.6075C211.495 20.6175 211.514 20.6258 211.514 20.6258C211.514 20.6258 211.603 20.5714 211.655 20.5531C211.706 20.5342 211.821 20.5342 211.821 20.5342L211.7 20.6524L211.777 20.7003L211.692 20.9237L211.777 20.9261C211.777 20.9261 211.921 20.9007 211.929 20.9237C211.941 20.945 211.921 20.8628 211.921 20.8628L212.104 20.8333L212.201 20.851L212.308 20.7677L212.26 20.7476L212.182 20.7174L212.325 20.6317C212.325 20.6317 212.436 20.5277 212.451 20.533C212.47 20.533 212.574 20.4225 212.574 20.4225C212.574 20.4225 212.72 20.3911 212.739 20.3965C212.759 20.3965 212.759 20.4443 212.759 20.4443L212.58 20.5519L212.515 20.6489L212.46 20.6991L212.537 20.783C212.537 20.783 212.586 20.744 212.599 20.744C212.599 20.744 212.63 20.7405 212.65 20.7405C212.727 20.6961 212.805 20.6571 212.879 20.6163C212.661 20.6294 212.853 20.5383 212.853 20.5383L213.001 20.4361L213.203 20.3273L213.532 20.2954L213.694 20.2239L213.143 20.2741C213.144 20.2759 212.961 20.257 213.022 20.2073ZM212.154 20.5844L212.038 20.4757L212.293 20.3947L212.386 20.4237L212.154 20.5844ZM211.289 14.6174C211.28 14.621 211.272 14.6264 211.266 14.6333C211.259 14.6401 211.254 14.6482 211.251 14.6572C211.247 14.6661 211.246 14.6756 211.246 14.6851C211.247 14.6947 211.249 14.704 211.253 14.7126C211.262 14.7304 211.277 14.7444 211.295 14.7514C211.314 14.7585 211.334 14.7581 211.353 14.7504C211.387 14.7291 211.483 14.6328 211.493 14.5938C211.494 14.5943 211.322 14.6003 211.289 14.6174Z" fill="black"></path>
    <path d="M236.129 1.37958C236.101 1.36126 236.058 1.34707 235.98 1.37958C235.831 1.44697 235.27 1.88024 235.09 2.01796C235.098 1.99491 235.106 1.97422 235.12 1.93875L235.152 1.87019C235.289 1.59592 235.648 0.859426 235.648 0.366458C235.648 0.257107 235.631 0.167262 235.593 0.0904202C235.587 0.0720964 235.573 0.0218539 235.513 0.00530343C235.446 -0.0153847 235.363 0.0242183 235.256 0.12825C235.042 0.343997 233.786 1.49071 233.771 1.50194C233.76 1.513 233.748 1.52254 233.734 1.53031V1.51849C233.734 1.50194 233.734 1.48125 233.739 1.44165L233.806 1.16384C233.86 0.967004 233.92 0.750075 233.92 0.574522C233.924 0.500001 233.908 0.42572 233.872 0.359956C233.868 0.330402 233.843 0.285479 233.801 0.283115C233.734 0.2642 233.66 0.338086 233.615 0.397195C233.483 0.574522 231.828 2.31114 231.531 2.55467C231.496 2.5789 231.477 2.59309 231.477 2.59309C231.47 2.53339 231.536 2.38089 231.639 2.20652C231.693 2.10426 232.036 1.3122 232.036 0.948089C232.039 0.901826 232.028 0.855745 232.005 0.815686C231.995 0.796361 231.98 0.780253 231.962 0.769411C231.943 0.758569 231.922 0.753485 231.901 0.754804C231.673 0.762488 231.203 1.28324 230.06 2.56531C230.06 2.56531 229.163 3.57489 229.124 3.61272V3.59321C229.124 3.57075 229.128 3.53292 229.128 3.48859C229.128 3.27875 229.095 2.88509 228.969 2.69062C228.903 2.59604 228.84 2.55467 228.766 2.55821C228.658 2.56058 228.554 2.68944 228.411 2.98202C228.242 3.33372 226.986 4.64771 225.594 5.75186L225.548 5.78378C224.254 6.80991 223.397 7.49085 222.396 8.96798C221.629 10.104 220.262 10.7152 219.269 11.1615C218.979 11.291 218.699 11.4121 218.48 11.5345C218.387 11.5274 217.441 11.4328 216.374 11.4641C216.313 11.0421 216.019 9.80496 214.62 8.92719C213.189 8.03583 211.118 6.70293 209.653 5.41435C208.752 4.61934 208.151 3.87102 207.794 3.42534C207.567 3.14457 207.486 3.04468 207.423 3.02517C207.328 2.99089 207.273 3.02517 207.242 3.05236C207.215 3.08369 207.187 3.12921 207.187 3.24506C207.187 3.36623 207.22 3.56306 207.325 3.88462L207.328 3.89939L207.269 3.87575C207.061 3.76463 206.562 3.50336 205.983 2.68471C205.406 1.86901 204.954 0.659638 204.954 0.659638C204.938 0.609396 204.908 0.566837 204.865 0.564473C204.801 0.562109 204.764 0.643088 204.734 0.70929C204.685 0.848196 204.641 1.05803 204.641 1.37308C204.641 1.66567 204.68 2.05461 204.796 2.55999H204.789C204.691 2.50443 203.916 1.75552 203.146 0.459259C203.125 0.427932 203.023 0.28607 202.917 0.324491C202.9 0.331379 202.884 0.341648 202.872 0.354661C202.859 0.367675 202.849 0.383157 202.843 0.40015C202.827 0.445092 202.819 0.492592 202.821 0.540238C202.821 0.853515 203.041 1.47002 203.465 2.32237C202.972 1.84311 202.512 1.33146 202.088 0.79086C202.064 0.755395 201.928 0.5627 201.801 0.556198C201.78 0.555846 201.759 0.560295 201.74 0.569206C201.721 0.578117 201.704 0.591256 201.691 0.607623C201.67 0.635404 201.657 0.686828 201.657 0.763079C201.657 1.03202 201.802 1.60656 202.158 2.35252C201.892 2.16065 201.63 1.96278 201.372 1.75906C201.36 1.74842 201.261 1.68045 201.17 1.72182C201.112 1.74842 201.082 1.82822 201.082 1.93934C201.082 2.18642 201.289 2.60432 201.364 2.76214C201.338 2.74973 201.276 2.72904 201.276 2.72904C201.179 2.67998 201.048 2.62323 200.944 2.62323C200.924 2.62222 200.904 2.62689 200.886 2.63672C200.869 2.64655 200.854 2.66113 200.845 2.6788C200.836 2.70354 200.832 2.72995 200.834 2.75623C200.834 2.90637 200.956 3.14989 201.048 3.28821C201.181 3.48681 201.732 3.99751 201.932 4.18134C201.732 4.12164 201.33 4.00697 201.309 3.9987C201.296 3.99751 201.148 3.965 201.077 4.0383C201.066 4.05078 201.057 4.0654 201.051 4.08133C201.045 4.09726 201.043 4.11417 201.043 4.1311C201.043 4.14824 201.043 4.16952 201.049 4.19612C201.108 4.40477 201.781 4.88828 203.05 5.62596C202.831 5.60587 202.714 5.62064 202.67 5.68271C202.67 5.68271 202.647 5.71522 202.647 5.74123C202.647 5.76132 202.653 5.77787 202.659 5.79974C202.746 5.9883 203.483 6.37901 204.13 6.59357C204.112 6.59594 204.09 6.59594 204.061 6.59594C203.911 6.60008 203.809 6.60303 203.769 6.65446C203.758 6.669 203.753 6.68675 203.754 6.7047V6.72716C203.791 6.83829 203.833 6.99611 205.248 7.54404C205.061 7.53636 204.932 7.54405 204.889 7.60315C204.889 7.60315 204.877 7.63448 204.877 7.66049C204.877 7.67349 204.879 7.68768 204.887 7.70009C204.958 7.87092 205.653 8.27345 206.952 8.6748C206.848 8.69785 206.754 8.72386 206.723 8.76937L206.71 8.80897L206.713 8.82848C206.807 9.10156 208.096 9.56557 209.285 9.94386C209.184 9.95037 209.096 9.96987 209.059 10.0107C209.038 10.0243 209.031 10.0497 209.031 10.0721L209.038 10.0834C209.05 10.2116 209.389 10.5935 212.114 11.3193C212.14 11.3246 212.162 11.3282 212.179 11.3365C212.165 11.3455 212.149 11.3517 212.133 11.3548C212.08 11.3826 212.006 11.4127 212.006 11.4884V11.4955C212.006 11.5658 212.087 11.6474 212.275 11.7597C212.672 12.0044 213.332 12.2367 213.532 12.3094C212.698 12.7465 211.884 13.2216 211.094 13.7333C211.083 13.7404 211.068 13.7593 211.068 13.7747V13.8001C211.068 13.8858 211.045 14.1908 210.708 14.3699C210.527 14.4692 210.219 14.6903 210.161 15.0733C210.153 15.1141 210.15 15.1554 210.15 15.1969C210.15 15.5285 210.342 15.892 210.723 16.2809C210.805 16.3459 210.863 16.3649 210.899 16.3335C210.948 16.2833 210.954 16.2295 210.922 16.1603C210.909 16.142 210.86 15.9806 210.918 15.8607C210.947 15.7927 211.003 15.7501 211.094 15.7271C211.34 15.6638 211.551 15.7135 211.702 15.756L211.821 15.7832C211.963 15.8033 212.28 15.8057 212.533 15.6697C212.724 15.5616 213.372 15.5959 213.718 15.6118L213.817 15.6159L213.95 15.6236C213.869 15.7391 213.772 15.8424 213.661 15.9304L213.472 16.0735C213.271 16.2165 213.161 16.3034 212.999 16.4984C212.961 16.5067 211.908 16.6764 211.908 16.6764C211.908 16.6764 211.877 16.6894 211.872 16.7041C211.872 16.7041 211.59 17.219 211.214 17.5689C210.837 17.9259 210.374 18.0796 210.374 18.0796C210.36 18.0832 210.355 18.092 210.355 18.092C210.342 18.1109 210.2 18.3426 210.176 18.8226C210.173 18.8711 210.17 18.9178 210.17 18.9668C210.17 18.9899 210.173 19.0094 210.173 19.0271L210.178 19.0555C210.178 19.0555 210.245 19.1613 210.342 19.2086C210.372 19.2245 210.51 19.3156 210.652 19.406C210.652 19.406 210.763 19.4474 210.893 19.4775H210.903L210.921 19.4894L210.931 19.4923L210.967 19.5047C209.82 19.8227 208.756 20.2111 207.793 20.6703C204.758 22.1268 203.087 24.1087 203.087 26.2685C203.087 28.4225 204.758 30.4044 207.793 31.8602C210.675 33.2387 214.488 34.0006 218.543 34.0006C222.59 34.0006 226.407 33.2387 229.284 31.8602C232.323 30.4044 233.994 28.4225 233.994 26.2685C233.994 24.1093 232.323 22.1268 229.284 20.6703C227.486 19.8074 225.317 19.1897 222.953 18.8445H222.955C222.955 18.8445 222.973 18.8409 222.98 18.8327C223.03 18.8117 223.074 18.7789 223.108 18.7372C223.142 18.6955 223.166 18.6461 223.177 18.5933C223.33 18.6849 223.717 18.8835 224.06 18.8019C224.481 18.6979 224.606 18.3137 224.624 18.2658C224.634 18.2416 224.663 18.2079 224.686 18.2091L224.747 18.2297C224.879 18.2782 225.113 18.3657 225.338 18.2546C225.51 18.1683 225.595 18.0276 225.656 17.9265C225.693 17.8639 225.724 17.8148 225.756 17.7953C225.791 17.7722 225.854 17.7628 225.912 17.751C226.048 17.7297 226.217 17.7031 226.313 17.5784C226.313 17.5784 226.408 17.44 226.408 17.3165C226.408 17.268 226.41 17.1475 226.479 17.122C226.479 17.122 227.109 16.8915 227.239 16.4423C227.239 16.4423 227.281 16.3253 227.223 16.2129C227.177 16.1095 227.067 16.0403 226.908 16.0078L221.999 14.6968C221.999 14.6968 221.823 14.6176 221.679 14.4214C222.096 14.4302 223.713 14.4367 224.744 14.1069C224.771 14.0939 224.847 14.0466 224.847 13.9757C224.848 13.953 224.842 13.9306 224.831 13.9112C224.819 13.8917 224.802 13.8761 224.781 13.8663C224.718 13.8303 224.659 13.8025 224.619 13.78L224.651 13.7788C224.837 13.7381 226.233 13.4206 226.549 13.2717C226.69 13.2055 226.76 13.1322 226.76 13.063V13.0453C226.744 12.9555 226.64 12.9105 226.575 12.9105C226.526 12.9105 226.429 12.8958 226.351 12.8828C226.399 12.8715 226.457 12.8597 226.457 12.8597C226.854 12.7704 227.91 12.5405 228.544 12.2633C228.582 12.2432 228.682 12.1734 228.682 12.0907V12.0854C228.682 12.0576 228.668 12.0174 228.611 11.9867C228.483 11.9169 227.943 11.8945 227.863 11.8891C227.876 11.8803 227.89 11.8755 227.915 11.859C227.953 11.8413 228.098 11.7881 228.281 11.7307C228.979 11.4955 230.279 11.0581 230.635 10.574C230.662 10.5364 230.678 10.4919 230.681 10.4457C230.679 10.4196 230.668 10.3951 230.65 10.3766C230.631 10.3582 230.607 10.347 230.581 10.3452C230.423 10.3369 230.266 10.3359 230.108 10.3423L230.136 10.3216L230.244 10.2672C230.67 10.0532 231.964 9.39179 232.635 8.81607C232.655 8.79065 232.771 8.6683 232.771 8.57136L232.766 8.55835L232.72 8.47737C232.72 8.47737 232.638 8.39521 232.449 8.41826L232.416 8.42418C232.416 8.41117 232.444 8.39521 232.475 8.37393L232.534 8.34497C233.39 7.90165 233.983 7.49085 234.288 7.12733C234.297 7.10959 234.335 7.05167 234.335 6.99729C234.335 6.97542 234.333 6.96005 234.333 6.96005C234.317 6.91572 234.28 6.87789 234.196 6.87493C234.034 6.86429 233.632 6.92399 233.556 6.93995V6.93877C233.556 6.93877 233.569 6.91572 233.628 6.86843L233.739 6.79632C234.038 6.59476 234.734 6.12721 235.084 5.5503C235.088 5.54601 235.092 5.54077 235.094 5.53494C235.094 5.50124 235.087 5.38716 235.027 5.33574C235.001 5.31801 234.964 5.30737 234.926 5.31801L234.555 5.41199C234.555 5.41199 234.568 5.39248 234.585 5.3783C234.599 5.3647 235.736 4.19553 235.971 3.53587C236.045 3.32604 236.076 3.20309 236.076 3.12743C236.076 3.07896 236.064 3.05355 236.036 3.03168C235.98 2.9838 235.896 3.03463 235.806 3.09315L235.768 3.11325L234.961 3.57607H234.951C234.961 3.56366 234.975 3.53292 235.016 3.48209L235.16 3.30299C235.49 2.9176 236.099 2.20711 236.189 1.61661V1.61306C236.189 1.61306 236.195 1.5841 236.195 1.55573C236.195 1.49898 236.187 1.418 236.129 1.37958ZM229.991 4.16066C230.941 3.50396 232.119 2.59664 233.157 1.51494L233.161 1.51849C233.161 1.55041 233.142 1.60361 233.086 1.68459C232.873 1.98486 231.679 3.18299 229.946 4.36103C229.962 4.28478 229.977 4.21444 229.991 4.16066ZM234.478 1.418C234.492 1.40618 234.514 1.40086 234.529 1.40618C234.538 1.40917 234.545 1.41455 234.552 1.42173C234.558 1.42892 234.562 1.43764 234.563 1.44697V1.46411C234.563 1.51494 234.539 1.65148 234.319 1.90683C234.091 2.16337 231.918 4.21444 229.362 5.63365C229.474 5.47464 229.575 5.30678 229.653 5.14718C230.913 4.39591 232.592 3.21432 234.478 1.418ZM229.61 4.41364C229.607 4.43965 229.533 4.58919 229.197 4.84454C228.841 5.06266 228.472 5.27545 228.089 5.47996C228.13 5.41317 228.172 5.3452 228.213 5.27427C228.292 5.22934 228.847 4.92552 229.61 4.41364ZM227.457 9.40302C226.765 9.65876 226.058 9.87137 225.34 10.0396C225.331 10.0423 225.32 10.042 225.311 10.0386C225.302 10.0352 225.294 10.0289 225.288 10.0207C225.279 10.0059 225.276 9.98051 225.286 9.96573L225.596 9.44853C225.605 9.43139 225.614 9.42666 225.627 9.42489C226.403 9.24132 227.17 9.02239 227.926 8.76878C227.926 8.76878 227.944 8.78829 227.944 8.82139L227.936 8.84503C227.932 8.86892 227.926 8.89231 227.917 8.91478C227.826 9.12696 227.664 9.30006 227.457 9.40302ZM227.457 9.94977V9.9545C227.447 9.97531 227.436 9.99581 227.425 10.016C227.346 10.1247 227.148 10.308 226.772 10.4457C226.071 10.688 225.319 10.9109 224.573 11.077C224.562 11.0791 224.551 11.0781 224.541 11.074C224.531 11.0699 224.522 11.0629 224.516 11.0539C224.505 11.0368 224.511 11.0137 224.527 10.9954L224.837 10.6136C224.837 10.6136 224.857 10.5988 224.868 10.5947C225.182 10.529 226.127 10.3287 227.441 9.89717C227.441 9.89835 227.469 9.91254 227.457 9.94977ZM227.805 8.28763C227.201 8.50988 226.603 8.69667 226.02 8.82257C225.997 8.82848 225.983 8.82139 225.974 8.80838C225.962 8.79361 225.957 8.77351 225.967 8.75459L226.213 8.24035C226.213 8.24035 226.233 8.2167 226.247 8.21138C226.603 8.1304 227.277 7.95308 228.167 7.63625C228.177 7.63798 228.187 7.6434 228.193 7.65147C228.199 7.65954 228.203 7.66969 228.202 7.68V7.69063C228.196 7.72906 228.19 7.7728 228.184 7.80412C228.147 7.93653 228.05 8.1239 227.805 8.28763ZM228.121 7.10191C227.609 7.30465 227.09 7.47193 226.585 7.59665C226.577 7.59728 226.568 7.59614 226.56 7.5933C226.551 7.59046 226.544 7.58597 226.537 7.5801C226.526 7.56473 226.52 7.54286 226.526 7.52631L226.675 7.16929C226.679 7.16102 226.69 7.14624 226.708 7.14506C227.224 7.01325 227.736 6.84893 228.243 6.64973C228.243 6.64973 228.267 6.66155 228.275 6.69761V6.78686C228.264 6.87848 228.226 7.01384 228.121 7.10191ZM227.336 6.56579C227.315 6.56934 227.286 6.56579 227.276 6.54688C227.263 6.52856 227.263 6.49841 227.281 6.486L227.485 6.24542L227.497 6.23892C228.051 6.01134 228.591 5.75039 229.113 5.4575C228.953 5.69098 228.732 5.91323 228.466 6.09824C228.096 6.26972 227.719 6.4257 227.336 6.56579ZM207.83 4.1181C207.883 4.17248 207.979 4.34448 207.979 4.34448C208.371 4.98345 209.317 6.14257 210.86 7.12555C212.405 8.11031 212.683 8.16528 214.216 9.33091C215.751 10.4995 215.635 11.2726 215.642 11.3749C215.647 11.4742 215.542 11.5026 215.542 11.5026C215.211 11.5652 214.53 11.8117 214.406 11.8773C214.287 11.9406 214.33 11.8058 214.33 11.8058C214.512 11.512 214.547 11.1615 214.547 11.1615C214.578 9.70093 212.201 8.90709 210.101 7.16693C207.993 5.43327 207.915 4.65008 207.81 4.38527C207.7 4.1181 207.772 4.06194 207.83 4.1181ZM208.09 7.1888C208.584 7.27746 209.082 7.35608 209.58 7.41873L209.612 7.42937L209.626 7.43529L210.051 7.69714C210.063 7.70778 210.069 7.7196 210.063 7.74383C210.057 7.75625 210.045 7.76925 210.03 7.76275L209.79 7.73674C209.505 7.70347 209.222 7.66346 208.939 7.61675C208.482 7.50208 208.106 7.32239 208.087 7.25559C208.076 7.21067 208.083 7.19471 208.083 7.19471M207.465 6.58412C207.44 6.53919 207.432 6.5126 207.427 6.49723L207.889 6.60185L208.736 6.76617L208.754 6.76795L209.191 7.03039C209.198 7.03447 209.204 7.04088 209.206 7.04853C209.209 7.05617 209.209 7.06459 209.207 7.07236C209.194 7.09186 209.181 7.10132 209.167 7.09896C208.917 7.05192 208.668 7.00266 208.42 6.95118C207.88 6.79218 207.513 6.65268 207.465 6.58412ZM209.082 8.08371C209.443 8.144 209.801 8.19897 210.166 8.24921L210.865 8.33138L210.879 8.33374L211.311 8.58495C211.323 8.59736 211.331 8.61037 211.324 8.62987C211.319 8.64643 211.303 8.65766 211.287 8.6547L210.371 8.54949C210.22 8.53116 210.063 8.5022 209.914 8.48092C209.28 8.35561 209.099 8.16232 209.081 8.12745C209.066 8.0908 209.082 8.08371 209.082 8.08371ZM210.205 8.9071C210.344 8.92778 210.476 8.94906 210.609 8.96384C210.999 9.01054 211.399 9.05014 211.804 9.08383L211.82 9.09033L211.984 9.20264C211.998 9.20737 212.007 9.22746 211.998 9.24638C211.994 9.2582 211.977 9.27475 211.964 9.27002H211.939C211.782 9.24756 211.548 9.2387 211.293 9.21801C210.735 9.17427 210.261 9.02709 210.22 8.97448C210.181 8.93547 210.198 8.91537 210.198 8.91537M207.625 5.92328L207.677 5.93451L207.753 5.95815H207.765L208.184 6.25606C208.191 6.26021 208.197 6.26695 208.2 6.27507C208.204 6.2832 208.204 6.29217 208.201 6.3004C208.196 6.30823 208.19 6.31469 208.182 6.31906C208.174 6.32344 208.165 6.32557 208.156 6.32522L207.749 6.2206C207.666 6.20227 207.591 6.17568 207.51 6.15085C207.054 5.98712 206.954 5.87067 206.902 5.79383C206.895 5.7761 206.885 5.76546 206.88 5.74773C206.876 5.73236 206.876 5.72822 206.88 5.72586C207.128 5.79464 207.376 5.86046 207.625 5.92328ZM207.257 5.41199C207.25 5.42913 207.232 5.43859 207.217 5.42913C206.936 5.35282 206.657 5.26786 206.38 5.17437C206.139 5.05729 205.909 4.91714 205.695 4.75588C205.665 4.72574 205.664 4.71096 205.664 4.71096C206.036 4.84336 206.444 4.98286 206.89 5.11704L207.25 5.36352C207.264 5.37357 207.268 5.39426 207.257 5.41199ZM205.087 2.07057C205.867 3.50868 206.756 3.99751 206.809 4.02884C206.997 4.1447 207.144 4.49698 207.198 4.64003C207.198 4.64003 207.21 4.66485 207.214 4.68731H207.21C207.113 4.65067 205.845 3.85092 205.459 3.12329C205.166 2.57181 205.095 2.21065 205.081 2.06052L205.087 2.07057ZM204.927 3.70611C205.274 3.89644 205.647 4.08204 206.045 4.25937L206.36 4.53836C206.375 4.55018 206.375 4.57442 206.367 4.58683C206.355 4.60338 206.334 4.61106 206.32 4.60338L206 4.46625L206.009 4.47039C205.997 4.46625 205.957 4.44497 205.795 4.37345C205.651 4.30499 205.508 4.23444 205.367 4.16184C205.133 4.01111 205.011 3.92777 204.957 3.86275C204.946 3.83863 204.936 3.81375 204.928 3.78827C204.922 3.7612 204.922 3.73325 204.927 3.70611ZM202.34 1.64439C202.357 1.63375 202.38 1.63848 202.389 1.65799C202.468 1.77739 202.706 2.1013 203.216 2.54639L203.267 2.59309C203.439 2.73672 203.628 2.87977 203.824 3.02695C204.045 3.17767 204.271 3.32781 204.512 3.47026C204.536 3.54533 204.556 3.63045 204.588 3.71497C204.277 3.52413 203.977 3.31655 203.688 3.09315C203.377 2.8502 203.084 2.58383 202.813 2.29636L202.552 2.00318L202.466 1.88674C202.414 1.83039 202.368 1.76833 202.329 1.70173V1.69523L202.321 1.69286L202.317 1.67513C202.317 1.66153 202.329 1.64853 202.34 1.64439ZM202.104 2.84312H202.099L202.09 2.84194V2.8242C202.09 2.80884 202.096 2.79169 202.103 2.78756C202.115 2.77633 202.141 2.77633 202.15 2.79169C202.205 2.84312 202.328 2.96666 202.559 3.14103C202.949 3.42475 203.693 3.90353 204.966 4.43078C205.043 4.53718 205.135 4.64594 205.243 4.74701C204.326 4.37167 203.283 3.84797 202.446 3.17708L202.266 3.02636C202.197 2.96193 202.128 2.88981 202.104 2.84312ZM202.428 3.92658L202.301 3.83674H202.305L202.299 3.83142L202.282 3.80541L202.29 3.78118C202.305 3.76522 202.329 3.75753 202.343 3.76935C202.537 3.90767 203.267 4.38645 204.583 4.92907C204.905 5.06029 205.238 5.19092 205.581 5.30737C205.825 5.39426 206.083 5.4841 206.345 5.56508C206.421 5.60045 206.484 5.65925 206.525 5.73295C206.532 5.74359 206.538 5.76073 206.538 5.76073L206.554 5.78733C206.565 5.84408 206.544 5.86654 206.544 5.86654C206.157 5.74495 205.774 5.61309 205.394 5.4711C204.229 5.02719 203.288 4.55373 202.604 4.05958L202.428 3.92658ZM202.97 5.01123C202.97 5.01123 202.84 4.92907 202.83 4.9202L202.827 4.91784L202.822 4.91547C202.822 4.91547 202.807 4.89774 202.807 4.88592L202.808 4.86523C202.815 4.85706 202.824 4.85136 202.834 4.8491C202.844 4.84684 202.855 4.84815 202.864 4.85282L203.095 4.98345C203.502 5.19062 203.918 5.37841 204.343 5.54617C205.071 5.83876 205.865 6.09883 206.694 6.31399L206.857 6.36069C206.901 6.39674 207.01 6.49723 207.027 6.54688C207.039 6.58589 207.027 6.6054 207.027 6.6054C207.004 6.61072 206.945 6.59239 206.802 6.55456L206.385 6.43516L205.651 6.20582L205.611 6.19164L205.348 6.10179L204.971 5.96879C204.174 5.66852 203.501 5.3452 202.97 5.01123ZM204.004 6.194L204.021 6.20523C204.021 6.20464 204.013 6.20464 204.004 6.194ZM204.204 6.6184L204.216 6.61958H204.206M204.505 6.38315L204.513 6.38728C204.499 6.38315 204.443 6.35359 204.094 6.19104L203.995 6.1408C203.995 6.1408 203.978 6.11775 203.978 6.10652L203.979 6.09056C203.988 6.06987 204.011 6.06573 204.025 6.06987C204.471 6.24546 204.925 6.40204 205.385 6.53919C206.036 6.73603 206.726 6.90744 207.427 7.05817C207.487 7.09541 207.662 7.27037 207.685 7.30879C207.709 7.33776 207.7 7.36199 207.692 7.37736C207.286 7.28777 206.883 7.18765 206.483 7.07708C206.083 6.96867 205.688 6.84285 205.299 6.69997C205.03 6.60403 204.765 6.49835 204.505 6.38315ZM205.673 7.28929V7.2881C205.661 7.27687 205.652 7.26564 205.652 7.255V7.24259C205.661 7.22131 205.678 7.21244 205.698 7.21776C206.062 7.35076 207.038 7.67763 208.49 7.96786C208.584 8.02224 208.816 8.20488 208.844 8.23148C208.851 8.23818 208.856 8.24623 208.859 8.25509C208.863 8.26396 208.864 8.27344 208.863 8.28291C208.835 8.27286 208.81 8.27049 208.778 8.26044C207.593 8.00923 206.549 7.68 205.673 7.28929ZM207.398 8.37866C207.38 8.3698 207.375 8.35797 207.375 8.3432L207.377 8.33078C207.38 8.31423 207.401 8.30182 207.419 8.30478C208.115 8.50949 208.822 8.67505 209.537 8.8007C209.601 8.82848 209.73 8.91419 209.777 8.94847C209.81 8.96739 209.817 8.99635 209.817 9.00758C209.756 8.99635 209.696 8.98748 209.642 8.97507C208.882 8.82603 208.132 8.62679 207.398 8.37866ZM208.929 9.33445C208.907 9.32854 208.892 9.30844 208.902 9.28657C208.907 9.26943 208.929 9.25761 208.946 9.26293C209.362 9.36873 209.992 9.5106 210.77 9.63118C210.812 9.64132 210.852 9.65681 210.889 9.67728C210.951 9.71038 211.158 9.83097 211.164 9.87412C210.409 9.73928 209.663 9.55906 208.929 9.33445ZM212.06 10.61C211.812 10.5805 211.535 10.5338 211.204 10.4782C211.182 10.4741 211.169 10.4546 211.173 10.438C211.173 10.4132 211.187 10.4002 211.214 10.4031C211.473 10.4291 211.748 10.4522 212.044 10.467H212.046C212.046 10.467 212.123 10.467 212.19 10.5054C212.255 10.5474 212.424 10.623 212.436 10.6532C212.31 10.6414 212.185 10.627 212.06 10.61ZM212.469 10.0077C211.956 9.98524 211.536 9.81501 211.493 9.76831C211.457 9.73225 211.473 9.72221 211.473 9.72221C211.851 9.75472 212.227 9.78191 212.602 9.79609H212.611C212.611 9.79609 212.655 9.81914 212.692 9.84042C212.757 9.88771 212.892 10.0237 212.469 10.0077ZM213.368 10.6585C213.304 10.6756 213.107 10.6272 213.006 10.5887C212.988 10.5751 212.97 10.5675 212.948 10.5568C212.889 10.5208 212.896 10.4883 212.896 10.4883L212.982 10.4847H213.292L213.314 10.493C213.334 10.5054 213.407 10.5568 213.409 10.6142C213.407 10.6295 213.395 10.6484 213.368 10.6585ZM213.492 11.1479L213.471 11.1361C213.426 11.1101 213.433 11.0918 213.433 11.0918L213.479 11.0817L213.655 11.0882L213.668 11.0918C213.68 11.1024 213.725 11.1331 213.725 11.1651C213.725 11.1757 213.713 11.184 213.699 11.1928C213.664 11.1999 213.551 11.1716 213.492 11.1479ZM213.691 16.3974L214.639 15.6697C214.725 15.6035 214.77 15.597 214.77 15.597L215.367 15.5876C215.367 15.5876 214.487 16.0977 214.221 16.22C213.953 16.3359 213.714 16.4222 213.714 16.4222C213.673 16.4228 213.691 16.3974 213.691 16.3974ZM218.329 15.2111C218.311 15.1389 218.171 14.8446 217.578 14.721C217.578 14.721 217.548 14.6962 217.612 14.6673C217.684 14.63 218.117 14.5431 218.741 14.7577C218.741 14.7577 218.783 14.7772 218.772 14.7417C218.772 14.7116 218.641 14.471 218.366 14.3758C218.366 14.3758 218.34 14.3416 218.381 14.3357C218.42 14.3297 219.487 14.1938 219.495 15.7087C219.495 15.7087 219.474 15.7667 219.427 15.7206C219.378 15.6739 219.162 15.3494 219.014 15.2081C218.864 15.0645 218.853 15.2217 218.864 15.4564C218.881 15.6881 218.755 16.5375 218.666 16.3867C218.582 16.236 218.515 15.9304 218.405 16.0882C218.3 16.2472 218.152 16.5818 217.6 16.9299C217.6 16.9299 217.548 16.9506 217.553 16.8874C217.563 16.8153 217.622 16.392 217.622 16.392C217.622 16.392 217.622 16.3193 217.605 16.3193C217.59 16.3193 217.038 16.7969 216.426 17.0854C216.426 17.0854 216.338 17.1321 216.36 17.0588C216.384 16.9932 216.608 16.4624 216.608 16.4624C216.608 16.4624 216.104 16.7863 215.142 16.8218C215.142 16.8218 215.106 16.8218 215.106 16.7904C215.106 16.7591 215.052 16.4547 214.901 16.3365C214.901 16.3365 215.404 16.142 215.901 15.8222C216.135 15.6739 216.359 15.4942 216.541 15.3488C216.942 15.2424 217.471 15.1673 218.271 15.2459C218.271 15.2459 218.35 15.2832 218.329 15.2111ZM221.272 18.1612L221.274 18.1825L221.24 18.2291C221.214 18.2416 221.159 18.2457 221.053 18.1801L220.152 16.83C220.144 16.8224 220.147 16.8058 220.147 16.8058C220.172 16.791 220.185 16.7934 220.185 16.7934L221.272 18.1612ZM220.543 16.3578C220.555 16.3501 220.565 16.3454 220.58 16.3578L222.638 18.2073L222.643 18.2351C222.635 18.2551 222.622 18.2734 222.607 18.2887C222.592 18.304 222.573 18.3161 222.553 18.3243C222.499 18.3598 222.426 18.3521 222.341 18.3243L222.278 18.2888L221.391 17.3159L220.753 16.6232L220.543 16.3909C220.535 16.3802 220.536 16.3678 220.543 16.3578ZM220.223 17.6942C220.2 17.7031 220.175 17.6942 220.171 17.6753L219.831 16.9766C219.823 16.9577 219.828 16.9376 219.845 16.9323C219.86 16.9252 219.883 16.9299 219.89 16.9477L220.235 17.641C220.25 17.6617 220.241 17.6865 220.223 17.6942ZM220.329 14.6483C220.316 14.6619 220.292 14.6596 220.273 14.6442C220.094 14.437 219.885 14.259 219.651 14.1164C219.642 14.1123 219.635 14.105 219.631 14.0959C219.628 14.0868 219.627 14.0766 219.631 14.0673C219.636 14.0586 219.645 14.0522 219.655 14.0493C219.665 14.0464 219.676 14.0471 219.685 14.0513C219.692 14.0614 220.047 14.2553 220.338 14.5922C220.348 14.6087 220.344 14.633 220.329 14.6483ZM219.966 15.0148C219.985 15.0532 219.962 15.0993 219.925 15.1135C219.916 15.1177 219.906 15.12 219.896 15.1202C219.886 15.1204 219.877 15.1186 219.868 15.1148C219.859 15.111 219.851 15.1054 219.844 15.0982C219.837 15.0911 219.832 15.0826 219.829 15.0733C219.595 14.4982 219.223 14.2588 219.223 14.2588C219.182 14.2334 219.171 14.1867 219.195 14.1512C219.2 14.1428 219.207 14.1356 219.215 14.1299C219.224 14.1242 219.233 14.1203 219.243 14.1183C219.252 14.1163 219.262 14.1163 219.272 14.1183C219.282 14.1203 219.291 14.1243 219.299 14.13C219.315 14.1394 219.713 14.3971 219.966 15.0148ZM211.504 17.7852C211.659 17.5683 212.18 17.0133 212.18 17.0133C212.18 17.0133 212.895 16.9382 213.3 16.8596C213.709 16.7786 214.479 16.6704 214.479 16.6704L214.492 16.7437C214.479 16.8395 214.341 16.8395 214.341 16.8395C213.931 16.8874 213.814 17.083 213.804 17.268C213.79 17.4489 213.694 17.6972 213.694 17.6972C213.698 17.6109 213.621 17.3342 213.401 17.268C213.176 17.1942 212.674 17.3289 212.469 17.6316C212.263 17.9312 212.458 18.3657 212.458 18.3657C212.079 18.1901 212.04 17.9472 212.051 17.8461C212.064 17.7403 212.165 17.5476 212.179 17.5021C212.19 17.459 212.147 17.4708 212.147 17.4708C212.147 17.4708 211.832 17.748 211.811 17.8816C211.792 18.0128 211.927 18.3657 211.927 18.3657C211.927 18.3657 211.603 18.1488 211.509 18.0211C211.415 17.8975 211.504 17.7852 211.504 17.7852ZM211.216 19.4101L211.234 19.4113L211.216 19.4143V19.4101ZM211.753 19.2896H211.743C211.726 19.2588 211.704 19.2257 211.687 19.195L211.509 18.9609L211.505 18.955L211.496 18.9473C211.496 18.9473 211.481 18.9349 211.471 18.9142V18.9095L211.463 18.8746C211.463 18.861 211.471 18.8433 211.483 18.8226C211.526 18.7499 211.58 18.6991 211.61 18.6666C211.703 18.7399 211.994 18.9284 212.488 19.0177C212.496 19.0181 212.505 19.0169 212.513 19.0141C212.521 19.0112 212.528 19.0068 212.534 19.0011C212.534 19.0011 212.546 18.9775 212.546 18.9621V18.9603C212.546 18.9603 212.539 18.8587 212.529 18.7907C212.623 18.8055 212.818 18.8279 213.046 18.8232C213.046 18.8232 213.092 18.8279 213.113 18.7978C213.113 18.7978 213.132 18.7599 213.113 18.7239L213.067 18.6648C212.988 18.5785 212.797 18.3692 212.797 18.1677C212.797 18.0536 212.931 17.9159 213.094 17.8704C213.172 17.847 213.254 17.8511 213.329 17.8819C213.403 17.9127 213.465 17.9684 213.503 18.0394C213.728 18.4236 213.59 18.5933 213.585 18.5968C213.569 18.6163 213.569 18.6382 213.582 18.6595C213.591 18.6772 213.615 18.6843 213.634 18.6819C213.634 18.6819 214.027 18.5732 214.036 18.1724L214.027 17.9419C214.025 17.7391 214.021 17.6493 214.157 17.5074C214.157 17.5074 214.267 17.4454 214.349 17.5435C214.382 17.602 214.554 17.8042 215.332 17.6859H215.335V17.6936C215.312 17.7622 215.208 17.897 215.174 17.9448C215.174 17.9448 215.14 17.9762 215.14 18.0205V18.0394C215.154 18.0678 215.178 18.0973 215.237 18.1038C215.362 18.1228 216.207 18.1251 216.958 17.7722C216.948 17.8254 216.906 17.936 216.882 17.9992C216.872 18.0104 216.865 18.0242 216.862 18.0391C216.859 18.054 216.86 18.0694 216.865 18.0837C216.874 18.1038 216.902 18.1275 216.954 18.1275C217.031 18.1275 217.778 17.9117 218.548 17.0304L218.564 17.0216C218.581 17.044 218.655 17.1894 218.705 17.284C218.73 17.313 218.782 17.375 218.838 17.3407C218.838 17.3407 218.869 17.3283 219.221 16.8821C219.221 16.8821 219.238 16.8821 219.254 16.9057C219.302 16.9624 219.646 17.6357 219.859 18.0772C219.871 18.092 220.053 18.3923 220.297 18.3923L220.452 18.3852C220.561 18.3757 220.604 18.3692 220.704 18.4254L220.803 18.4851C220.876 18.5401 220.966 18.5956 221.068 18.6382C220.24 18.5684 219.4 18.5318 218.543 18.5318C216.145 18.5318 213.839 18.8019 211.755 19.3002L211.753 19.2896ZM229.84 21.4849C229.991 21.5647 230.131 21.6462 230.269 21.7308C232.38 23.0105 233.52 24.5916 233.52 26.2685C233.52 28.2316 231.947 30.0669 229.083 31.4388C226.263 32.7882 222.519 33.5289 218.545 33.5289C214.562 33.5289 210.816 32.7882 208.002 31.4388C205.143 30.0669 203.562 28.2316 203.562 26.2685C203.562 24.766 204.485 23.3356 206.199 22.1327C206.726 21.7662 207.328 21.4157 208.002 21.0947C208.07 21.0622 208.141 21.0285 208.214 20.9966C211.005 19.7092 214.66 19.0023 218.545 19.0023C222.52 19.0023 226.263 19.7465 229.083 21.0947C229.346 21.2195 229.6 21.346 229.84 21.4849ZM221.493 18.6713C221.665 18.6264 221.755 18.5211 221.755 18.5211C221.755 18.5211 221.775 18.5087 221.813 18.5294L221.931 18.6051L222.12 18.7363C221.911 18.7162 221.7 18.692 221.493 18.6713ZM224.07 18.2398C224.037 18.277 223.939 18.3474 223.731 18.2173L220.811 16.0616L220.737 15.9806C220.727 15.9741 220.725 15.9611 220.729 15.9517L220.761 15.9428L220.913 16.0226L223.901 17.9082C223.914 17.9259 224.062 18.0317 224.093 18.0873L224.096 18.0926L224.104 18.1458C224.104 18.1802 224.092 18.2135 224.07 18.2398ZM225.119 17.6463L225.099 17.6907C225.073 17.7269 225.038 17.7563 224.998 17.7763C224.958 17.7962 224.913 17.8062 224.868 17.8053H224.848L224.782 17.7841L224.715 17.7586L222.447 16.4588L221.126 15.6881L221.081 15.6502C221.081 15.6502 221.065 15.6325 221.072 15.6207C221.072 15.6207 221.088 15.6035 221.103 15.6077L221.197 15.6372L225.127 17.563L225.142 17.5943L225.119 17.6463ZM225.877 17.2001C225.853 17.2426 225.819 17.2779 225.777 17.3019C225.734 17.3259 225.686 17.3377 225.638 17.336L225.611 17.3337H225.597L221.198 15.2879L221.184 15.2672L221.207 15.2341L224.981 16.6764L225.911 17.0387C225.923 17.0446 225.931 17.0511 225.931 17.0511C225.918 17.1025 225.9 17.1524 225.877 17.2001ZM226.188 16.4529H226.182C226.226 16.4582 226.278 16.5085 226.296 16.5581C226.303 16.5748 226.304 16.5928 226.301 16.6103C226.298 16.6278 226.29 16.644 226.278 16.6574C226.213 16.7331 226.09 16.7053 226.09 16.7053L221.549 15.016L221.465 14.9699C221.461 14.9684 221.458 14.9661 221.456 14.9631C221.453 14.9601 221.452 14.9565 221.451 14.9527C221.451 14.9527 221.47 14.925 221.483 14.9279L221.557 14.9415L226.188 16.4529ZM221.97 12.3691C220.75 13.2374 218.3 13.5625 217.797 13.556C217.292 13.5371 216.907 14.1684 216.155 14.7134C215.396 15.2613 214.621 15.1129 214.621 15.1129C214.821 14.8446 214.776 14.4485 214.776 14.4485C214.677 14.6308 214.542 14.7911 214.379 14.9197C214.217 15.0482 214.029 15.1423 213.829 15.1963C213.534 15.2713 213.379 15.2672 212.96 15.2613C212.547 15.2518 212.258 15.4197 212.049 15.4463C211.84 15.4782 211.55 15.4055 211.55 15.4055C211.686 15.3305 211.898 15.2465 212.035 15.2382C212.172 15.2306 212.539 15.1307 212.539 15.1307C212.096 15.0006 211.509 15.2613 211.509 15.2613C211.186 15.3884 211.019 15.2713 211.019 15.2713C210.584 15.3984 210.643 15.7418 210.643 15.7418C210.643 15.7418 210.495 15.506 210.484 15.1301C210.475 14.7553 211.374 14.3132 211.374 14.3132C211.861 14.2204 212.071 14.4698 212.071 14.4698C212.197 14.6891 212.404 14.8056 212.56 14.6791C212.717 14.5561 212.761 14.3753 212.894 14.3664C213.029 14.3557 213.141 14.3664 213.141 14.3664C213.141 14.3664 213.314 14.2606 213.314 14.231C213.314 14.2009 213.268 14.2097 213.268 14.2097C213.268 14.2097 213.029 14.273 212.366 14.3049C211.698 14.3345 211.471 13.9172 211.471 13.9172C212.696 13.5312 213.904 12.3638 215.208 12.0937C216.508 11.8241 217.874 12.0511 217.874 12.0511C217.512 12.4731 217.416 12.8171 217.416 12.8171C220.415 10.8394 222.262 10.2506 222.262 10.2506C223.528 7.97495 224.912 6.95059 225.987 6.24602C227.054 5.54735 228.372 3.89526 228.484 3.68128C228.605 3.44189 228.669 3.45194 228.669 3.45194C228.618 4.27296 227.824 5.15546 227.169 5.79561C226.508 6.43043 225.514 7.13856 225.514 7.13856C225.447 7.21244 225.5 7.242 225.5 7.242C225.5 7.242 225.705 7.26505 225.738 7.26505C225.764 7.26505 225.764 7.32475 225.764 7.32475C225.55 7.65162 225.171 7.90106 225.119 7.96372C225.069 8.02874 225.136 8.04174 225.136 8.04174C225.136 8.04174 225.218 8.05238 225.28 8.07189C225.339 8.09376 225.28 8.20902 225.28 8.20902L224.665 8.80306C224.612 8.86158 224.635 8.88641 224.635 8.88641C224.635 8.88641 224.925 8.85331 224.957 8.86158C224.988 8.86749 224.988 8.9331 224.988 8.9331C224.868 9.23338 224.468 9.58803 224.422 9.64004C224.368 9.70034 224.384 9.72161 224.384 9.72161C224.384 9.72161 224.659 9.70565 224.68 9.70565C224.706 9.70565 224.697 9.73994 224.697 9.73994C224.18 10.4965 223.144 11.0764 223.144 11.0764C223.144 11.0764 223.44 11.2112 223.47 11.2348C223.498 11.2567 223.47 11.2874 223.47 11.2874C222.797 11.7573 221.733 12.1013 221.733 12.1013C221.733 12.1013 221.969 12.216 221.987 12.2615C222.016 12.3023 221.97 12.3691 221.97 12.3691ZM223.2 13.16C222.815 13.1818 222.173 13.1677 222.173 13.1677C222.126 13.1647 222.091 13.131 222.092 13.089C222.092 13.0494 222.13 13.0152 222.169 13.0169C222.169 13.0169 222.81 13.0288 223.196 13.0116C223.206 13.0108 223.216 13.012 223.225 13.0153C223.234 13.0185 223.243 13.0236 223.25 13.0303C223.258 13.037 223.264 13.0452 223.268 13.0542C223.272 13.0633 223.274 13.0732 223.274 13.0831C223.274 13.1251 223.243 13.16 223.2 13.16ZM225.37 12.0038L225.352 12.0239L225.286 12.0564C225.068 12.1528 224.843 12.2324 224.612 12.2946C224.426 12.3277 224.236 12.3685 224.044 12.4004C223.965 12.4093 223.903 12.4235 223.846 12.4294C223.546 12.4796 223.25 12.5169 222.971 12.5393C222.709 12.5659 222.918 12.4057 222.954 12.378C222.966 12.362 223.011 12.3596 223.011 12.3596C223.287 12.3354 224.096 12.2456 225.355 11.9465C225.38 11.9571 225.413 11.9689 225.37 12.0038ZM223.68 11.888C223.641 11.8945 223.658 11.859 223.658 11.859L223.891 11.684C223.976 11.6196 224.041 11.5918 224.041 11.5918C224.366 11.5416 225.35 11.3447 226.723 10.9209C226.723 10.9209 226.745 10.9345 226.731 10.9582L226.706 10.9842C226.623 11.0486 226.321 11.1934 225.86 11.3542C225.142 11.5675 224.415 11.7456 223.68 11.888ZM228.96 10.8985C228.948 10.9079 228.932 10.9156 228.92 10.9209C228.807 10.97 227.785 11.4641 226.049 11.9471C226.169 11.8649 226.293 11.7715 226.409 11.6787C227.13 11.4771 227.946 11.2259 228.888 10.8778C228.913 10.8683 228.96 10.8583 228.985 10.8465C228.985 10.8465 228.992 10.8683 228.96 10.8985ZM231.175 9.24697C231.153 9.27771 230.963 9.3776 230.678 9.51828C230.527 9.59926 230.333 9.68615 230.114 9.789C230.028 9.82446 229.937 9.86407 229.84 9.90367C229.307 10.1437 228.632 10.4167 227.868 10.694C227.633 10.7779 227.39 10.863 227.14 10.9499C227.198 10.876 227.258 10.8063 227.306 10.7341C227.528 10.6603 227.755 10.5876 227.993 10.5048C228.808 10.2234 229.704 9.91135 230.649 9.46745C230.813 9.38647 230.981 9.30726 231.153 9.22628C231.153 9.22747 231.246 9.15772 231.175 9.24697ZM232.242 7.91998V7.92648L232.239 7.93771C232.231 7.95729 232.226 7.97775 232.224 7.99859C232.196 8.03169 232.044 8.1239 231.77 8.27286L230.965 8.69253L230.649 8.84444C230.131 9.10097 229.58 9.34746 229.026 9.58803C228.647 9.74703 228.204 9.92377 227.725 10.1058C227.793 9.98288 227.852 9.86111 227.914 9.7358C228.22 9.63199 228.523 9.52202 228.824 9.40597C229.635 9.09743 230.527 8.66652 231.607 8.11917C231.734 8.05593 232.105 7.87151 232.196 7.86264C232.211 7.8585 232.233 7.86914 232.242 7.89279L232.243 7.91288L232.242 7.91998ZM234.01 6.06573C234.01 6.22887 232.323 7.19412 230.811 7.94776L229.754 8.45669C229.205 8.71085 228.673 8.93665 228.16 9.14471C228.223 8.96857 228.277 8.79538 228.32 8.63165C230.253 7.95311 232.108 7.07056 233.854 5.99894C233.869 5.98535 233.913 5.9487 233.96 5.96879C233.985 5.97707 234.01 6.00367 234.01 6.06573ZM234.732 4.33266C234.675 4.5029 231.634 6.70352 228.46 8.0246C228.489 7.84136 228.514 7.6664 228.534 7.50149C230.659 6.69848 232.665 5.61059 234.497 4.26764C234.6 4.19671 234.669 4.16657 234.714 4.20026C234.766 4.2375 234.738 4.31079 234.732 4.33266ZM235.425 2.32946C235.315 2.49142 232.031 5.40431 228.572 6.90685C228.579 6.84242 228.579 6.77622 228.579 6.71593C228.579 6.64323 228.579 6.57584 228.572 6.51732C232.178 5.02601 235.287 2.22129 235.322 2.19056L235.326 2.18524C235.395 2.13677 235.44 2.12436 235.474 2.15864C235.513 2.19588 235.474 2.25853 235.425 2.32946ZM16.1651 25.0751C16.1651 23.0063 14.9404 22.946 14.0537 22.946H12.9892V21.6102C14.6702 21.7059 16.4689 21.8035 18.517 21.8035C20.5663 21.8035 22.365 21.7059 24.1383 21.6102V22.946H23.5898C22.7043 22.946 21.4796 23.0063 21.4796 25.0751V31.2077C19.7376 31.7154 15.6124 32.6068 12.3756 32.6068C5.28729 32.6068 0 28.4106 0 20.7224C0 14.7819 3.66889 8.83794 12.4992 8.83794C15.5829 8.83794 18.822 9.60162 21.4784 10.4581L21.2957 16.9092H19.1844C19.1578 13.1588 16.5913 10.9369 13.0784 10.9369C7.33482 10.9369 5.68272 15.2572 5.68272 20.7561C5.68272 26.0297 8.43365 30.6993 13.5064 30.6993C14.4817 30.6993 15.4918 30.5102 16.1639 30.3494V25.0751H16.1651ZM26.6327 12.5896C26.6327 11.2549 26.4193 10.6165 24.1873 10.5864V9.25052C25.7484 9.34864 27.5483 9.44499 29.2914 9.44499C31.0321 9.44499 32.8367 9.34864 34.6088 9.25052V10.5864C32.1647 10.6165 31.9525 11.2543 31.9525 12.5896V24.789C31.9525 28.4112 34.1507 29.7453 37.358 29.7453C41.6351 29.7453 43.0738 27.4915 43.0738 22.9785V12.5896C43.0738 11.2549 42.8581 10.6165 40.4151 10.5864V9.25052C41.5163 9.34864 42.7345 9.44499 43.9858 9.44499C45.0285 9.44499 46.0984 9.34864 47.1038 9.25052V10.5864C45.3004 10.6165 45.0859 11.2543 45.0859 12.5896V23.199C45.0859 30.6668 40.6261 32.6068 36.1066 32.6068C30.4842 32.6068 26.6333 31.0481 26.6333 24.344L26.6327 12.5896ZM48.5975 30.8589C51.2261 30.8241 51.4401 30.1892 51.4401 28.8546V12.5896C51.4401 11.2549 51.2267 10.6165 48.7825 10.5864V9.25052C50.5534 9.34864 52.3604 9.44499 54.0988 9.44499C55.8384 9.44499 57.6441 9.34864 59.9659 9.25052V10.5864C56.9727 10.6165 56.7563 11.2543 56.7563 12.5896V29.1749C56.7563 30.126 56.7912 30.4771 58.5609 30.4771C62.2564 30.4771 65.4956 29.7772 66.3213 25.4877H67.815C67.2845 27.7034 66.8457 29.94 66.4998 32.1918C63.9345 32.0985 61.0671 32.0003 57.8551 32.0003C54.4357 32.0003 51.3207 32.0985 48.5975 32.1918V30.8589ZM68.3966 30.8589C71.0252 30.8241 71.238 30.1892 71.238 28.8546V12.5896C71.238 11.2549 71.0258 10.6165 68.5816 10.5864V9.25052C71.3627 9.34864 74.2041 9.44499 77.0448 9.44499C79.9146 9.44499 82.7571 9.34864 85.6292 9.25052C85.6292 11.1591 85.7504 13.5731 85.8716 15.032H84.343C84.1627 11.0929 82.0259 10.9694 78.8453 10.9694C77.474 10.9694 76.5536 10.9694 76.5536 11.9542V19.9936H79.1822C81.6252 19.9936 82.4817 19.6726 82.4817 17.0369H83.762C83.6442 18.3779 83.5836 19.7232 83.5805 21.0693C83.5805 22.5961 83.6703 24.0916 83.762 25.1053H82.4817V24.1542C82.4503 21.8969 81.4727 21.5186 79.4246 21.5186H76.5536V28.8551C76.5536 30.1898 76.7682 30.8247 79.888 30.8595V32.1918C77.8665 32.0985 75.7007 32.0003 73.9877 32.0003C72.2765 32.0003 70.3236 32.0985 68.3966 32.1918V30.8589ZM100.364 11.5723C99.7852 10.7773 98.7762 10.587 98.1313 10.587H97.766V9.25111C99.0842 9.34923 100.391 9.44558 101.681 9.44558C102.994 9.44558 104.306 9.34923 105.648 9.25111L116.952 23.8356H117.015V12.5896C117.015 11.2549 116.802 10.6165 114.084 10.5864V9.25052C115.487 9.34864 116.923 9.44499 118.024 9.44499C119.123 9.44499 120.558 9.34864 121.324 9.25052V10.5864C119.244 10.6165 119.036 11.2543 119.036 12.5896V32.1912H116.527L102.44 13.8244H102.381V28.8551C102.381 30.1898 102.597 30.8247 105.315 30.8595V32.1918C103.905 32.0985 102.473 32.0003 101.372 32.0003C100.271 32.0003 98.8371 32.0985 97.4297 32.1918V30.8595C100.152 30.8247 100.363 30.1898 100.363 28.8551L100.364 11.5723ZM122.637 30.8589C125.359 30.8241 125.571 30.1892 125.571 28.8546V12.5896C125.571 11.2549 125.36 10.6165 122.911 10.5864V9.25052C125.694 9.34864 128.538 9.44499 131.377 9.44499C134.249 9.44499 137.094 9.34864 139.964 9.25052C139.964 11.1591 140.082 13.5731 140.203 15.0976H138.681C138.496 11.0929 136.353 10.97 133.177 10.97H131.9C131.102 10.97 130.886 11.2549 130.886 11.9199V19.6099H133.332C135.778 19.6099 136.631 18.9775 136.631 16.5587H137.913C137.794 17.8259 137.733 19.0979 137.731 20.3707C137.731 21.8963 137.82 23.3888 137.913 24.4054H136.631C136.631 21.7698 135.778 21.1361 133.332 21.1361H130.886V29.049C130.886 29.9693 131.316 30.2844 132.202 30.2844H133.545C137.093 30.2844 139.687 29.7778 140.419 25.9334H141.885C141.334 28.0016 141.001 30.0953 140.693 32.1918C137.731 32.0985 134.794 32.0003 131.834 32.0003C128.779 32.0003 125.693 32.0985 122.636 32.1918V30.8589H122.637ZM141.274 9.25052C142.834 9.34864 144.389 9.44499 145.947 9.44499C147.445 9.44499 148.913 9.34864 150.411 9.25052V10.5864H149.797C148.975 10.7146 148.945 11.0929 148.945 11.5073C148.945 11.8566 149.099 12.5896 149.312 13.3196L153.004 26.343H153.066L156.429 15.5101L155.635 12.365C155.237 10.7767 154.991 10.5864 153.65 10.5864H152.945V9.25052C154.534 9.34864 156.154 9.44499 157.741 9.44499C159.485 9.44499 161.257 9.34864 162.999 9.25052V10.5864H162.448C161.378 10.5864 160.799 10.8731 160.799 11.444C160.799 11.9542 160.952 12.5559 161.197 13.7316L164.068 26.8525H164.128L168.435 13.4455C168.685 12.6505 168.866 12.0783 168.866 11.4435C168.866 10.7436 168.192 10.5858 167.185 10.5858H166.449V9.24993C167.676 9.34805 169.11 9.44439 170.086 9.44439C171.125 9.44439 172.134 9.34805 173.171 9.24993V10.5858C171.737 10.5858 171.094 11.6657 170.575 13.2226L164.281 32.3798H160.858L157.406 19.1974H157.346L153.039 32.3798H149.618L143.782 13.0985C143.105 10.9357 142.955 10.6496 141.274 10.6496V9.25052ZM187.483 16.0208H185.62C185.528 12.7764 184.582 10.7448 180.944 10.7448C179.173 10.7448 177.434 11.5079 177.434 13.7948C177.434 18.4023 188.949 16.7195 188.949 25.0444C188.949 30.3837 184.917 32.6074 180.243 32.6074C177.86 32.6074 174.804 31.8413 172.724 30.6006C172.847 28.7629 172.881 26.0563 172.881 24.2151H175.082C175.082 27.6807 176.453 30.509 180.061 30.509C182.319 30.509 184.365 29.6188 184.365 27.4909C184.365 22.0878 173.031 23.8019 173.031 15.6384C173.031 11.3158 176.238 8.83794 181.036 8.83794C183.297 8.83794 185.559 9.31435 187.757 9.76122L187.483 16.0208Z" fill="black"></path>
  </g>
  <defs>
    <clipPath id="clip0_188_2629">
      <rect width="236.195" height="34" fill="white"></rect>
    </clipPath>
  </defs>
</svg>
